<svg width="101" height="24" viewBox="0 0 101 24" fill="none" xmlns="http://www.w3.org/2000/svg">
<path fill-rule="evenodd" clip-rule="evenodd" d="M15.9967 12.8894C16.0194 11.1252 16.9443 9.49568 18.4473 8.57167C17.4948 7.21137 15.9566 6.37984 14.2969 6.32791C12.5506 6.14461 10.8577 7.37283 9.96786 7.37283C9.06079 7.37283 7.69073 6.34611 6.21539 6.37646C4.27424 6.43917 2.50843 7.51608 1.56402 9.21316C-0.447094 12.6952 1.05302 17.8125 2.97953 20.6272C3.94341 22.0054 5.0699 23.5449 6.54391 23.4903C7.98631 23.4305 8.52502 22.5705 10.2661 22.5705C11.991 22.5705 12.4965 23.4903 14.0004 23.4556C15.5482 23.4305 16.5233 22.0712 17.4534 20.68C18.1459 19.6979 18.6788 18.6126 19.0324 17.4641C17.1941 16.6866 15.9988 14.8853 15.9967 12.8894Z" fill="#333333"/>
<path fill-rule="evenodd" clip-rule="evenodd" d="M13.1561 4.47682C14 3.46375 14.4158 2.16161 14.3151 0.846931C13.0258 0.982346 11.8349 1.59855 10.9796 2.57275C10.135 3.53394 9.70712 4.79143 9.79022 6.06825C11.0968 6.0817 12.3374 5.49515 13.1561 4.47682Z" fill="#333333"/>
<path fill-rule="evenodd" clip-rule="evenodd" d="M28.5682 16.2686H33.3016L34.4374 19.6251H36.4764L31.993 7.20706H29.91L25.4266 19.6251H27.4315L28.5682 16.2686ZM32.8104 14.7198H29.0584L30.909 9.27251H30.9608L32.8104 14.7198Z" fill="#333333"/>
<path fill-rule="evenodd" clip-rule="evenodd" d="M42.3808 19.7198C44.6532 19.7198 46.1591 17.9122 46.1591 15.0987C46.1591 12.293 44.6444 10.4766 42.3466 10.4766C41.1642 10.4385 40.0566 11.0535 39.4637 12.0772H39.4296V10.5713H37.6307V22.6202H39.4891V18.1358H39.5321C40.0997 19.166 41.2062 19.7812 42.3808 19.7198ZM41.8563 12.0606C43.3017 12.0606 44.2489 13.2657 44.2489 15.0987H44.2489C44.2489 16.9483 43.3017 18.1446 41.8563 18.1446C40.4364 18.1446 39.4813 16.9229 39.4813 15.0987C39.4813 13.2911 40.4364 12.0606 41.8563 12.0606Z" fill="#333333"/>
<path fill-rule="evenodd" clip-rule="evenodd" d="M52.3456 19.7198C54.6181 19.7198 56.1244 17.9122 56.1244 15.0987C56.1244 12.293 54.6093 10.4766 52.3114 10.4766C51.129 10.4385 50.0214 11.0535 49.4286 12.0772H49.3944V10.5713H47.5956V22.6202H49.454V18.1358H49.497C50.0646 19.166 51.171 19.7812 52.3456 19.7198ZM51.8212 12.0606C53.2665 12.0606 54.2138 13.2657 54.2138 15.0987C54.2138 16.9483 53.2665 18.1446 51.8212 18.1446C50.4013 18.1446 49.4462 16.9229 49.4462 15.0987C49.4462 13.2911 50.4013 12.0606 51.8212 12.0606Z" fill="#333333"/>
<path fill-rule="evenodd" clip-rule="evenodd" d="M62.7093 16.1651C62.847 17.3965 64.0433 18.2051 65.678 18.2051C67.2444 18.2051 68.3714 17.3965 68.3714 16.2861C68.3714 15.3223 67.6917 14.7451 66.0823 14.3496L64.473 13.9619C62.1927 13.4111 61.1341 12.3447 61.1341 10.6143C61.1341 8.47169 63.0013 7.00001 65.6517 7.00001C68.2767 7.00001 70.0755 8.47169 70.136 10.6143H68.26C68.1477 9.37501 67.1233 8.62697 65.6262 8.62697C64.1292 8.62697 63.1048 9.38381 63.1048 10.4854C63.1048 11.3633 63.7591 11.8799 65.3597 12.2754L66.7278 12.6113C69.2757 13.2138 70.3333 14.2373 70.3333 16.0537C70.3333 18.3769 68.4837 19.832 65.5403 19.832C62.7864 19.832 60.927 18.4111 60.8069 16.165L62.7093 16.1651Z" fill="#4A4A4A"/>
<path fill-rule="evenodd" clip-rule="evenodd" d="M74.3459 8.42876V10.5713H76.0676V12.043H74.3459V17.0342C74.3459 17.8096 74.6907 18.1709 75.4475 18.1709C75.6519 18.1674 75.856 18.153 76.0588 18.1279V19.5908C75.7186 19.6544 75.3727 19.6832 75.0266 19.6768C73.1936 19.6768 72.4788 18.9883 72.4788 17.2324V12.043H71.1624V10.5713H72.4787V8.42876H74.3459Z" fill="#4A4A4A"/>
<path fill-rule="evenodd" clip-rule="evenodd" d="M81.3579 10.46C78.7417 10.46 77.064 12.2501 77.064 15.0987C77.064 17.9551 78.7251 19.7374 81.3579 19.7374C83.9917 19.7374 85.6528 17.9551 85.6528 15.0987C85.6528 12.25 83.9829 10.46 81.3579 10.46ZM81.3578 11.9913C82.8637 11.9913 83.7592 13.1446 83.7592 15.0987H83.7592C83.7592 17.0606 82.8637 18.2052 81.3578 18.2052C79.852 18.2052 78.9565 17.0606 78.9565 15.0987C78.9565 13.1534 79.852 11.9913 81.3578 11.9913Z" fill="#333333"/>
<path fill-rule="evenodd" clip-rule="evenodd" d="M87.1849 10.5714H88.9574V12.1124H89.0004C89.2476 11.1203 90.1565 10.4376 91.1781 10.4766C91.3923 10.4759 91.6059 10.4991 91.8149 10.546V12.2842C91.5445 12.2016 91.2625 12.1637 90.9799 12.1719C90.4335 12.1498 89.9048 12.3675 89.5325 12.768C89.1601 13.1685 88.9815 13.7117 89.0433 14.2549V19.6251H87.1849L87.1849 10.5714Z" fill="#333333"/>
<path fill-rule="evenodd" clip-rule="evenodd" d="M96.4849 19.7373C98.5327 19.7373 100.133 18.6094 100.383 16.9659L98.6187 16.9659C98.28 17.8059 97.4297 18.3238 96.5278 18.2393C95.8516 18.2642 95.1973 17.9974 94.7313 17.5067C94.2653 17.0161 94.0326 16.3489 94.0923 15.6748V15.5625H100.487V14.9258C100.487 12.1807 98.9116 10.46 96.4067 10.46C93.8599 10.46 92.2163 12.3018 92.2163 15.1416C92.2163 17.9727 93.8511 19.7373 96.4849 19.7373ZM98.6274 14.2637L94.1011 14.2637C94.0995 13.6525 94.3421 13.0659 94.7751 12.6344C95.2081 12.2029 95.7955 11.9622 96.4067 11.9659C97.0132 11.9528 97.5976 12.1934 98.0191 12.6296C98.4407 13.0658 98.6612 13.6581 98.6274 14.2637Z" fill="#333333"/>
</svg>
