<svg width="96" height="109" viewBox="0 0 96 109" fill="none" xmlns="http://www.w3.org/2000/svg">
<path d="M94.8065 27.9828L80.7346 87.1945L78.8809 94.9844L76.0195 107.026C74.6549 112.768 68.8882 116.321 63.1362 114.953L14.0044 103.297C8.25732 101.934 4.70144 96.172 6.07097 90.4248L20.901 28.0317L24.8579 11.3765C25.0096 10.7363 25.2199 10.1157 25.4791 9.53413C27.5138 4.90119 32.6349 2.23774 37.7413 3.44973L86.873 15.1054C92.6201 16.4786 96.1711 22.2405 94.8065 27.9828Z" fill="#00B4E5"/>
<path d="M60.7336 118.985C59.8532 118.985 58.9581 118.883 58.063 118.673L8.92638 107.012C2.72927 105.541 -1.11518 99.3051 0.357057 93.1132L19.144 14.065C19.8581 11.0643 21.6972 8.52302 24.3238 6.9054C26.9503 5.28778 30.0513 4.7893 33.0545 5.50281L82.1912 17.1633C85.1943 17.8769 87.7377 19.7144 89.3567 22.3387C90.9757 24.9631 91.4746 28.0615 90.7605 31.0622L71.9735 110.106C70.7116 115.408 65.9623 118.985 60.7336 118.985ZM58.4592 117.006C63.7368 118.257 69.0535 114.988 70.3105 109.71L89.0975 30.6614C89.704 28.1055 89.2785 25.4665 87.8992 23.2331C86.5199 20.9948 84.3531 19.4309 81.795 18.8249L32.6583 7.16441C30.1002 6.55842 27.459 6.98359 25.2237 8.36174C22.9836 9.7399 21.4184 11.9049 20.8119 14.4608L2.02494 93.5091C0.772805 98.7822 4.04499 104.094 9.32745 105.35L58.4592 117.006Z" fill="#545267"/>
<path d="M31.4219 14.941L17.3011 74.358L28.184 92.1811L67.6459 101.545C69.1671 101.906 70.6931 100.968 71.0551 99.4433L87.954 28.356L31.4219 14.941Z" fill="white"/>
<path d="M65.4238 103.65C65.1939 103.65 64.964 103.625 64.7341 103.567L25.2233 94.1933L14.2866 76.2871L14.2964 76.2382L28.4466 16.704L28.5639 16.7333L85.2134 30.1727L85.1841 30.29L68.2851 101.377C68.1041 102.145 67.6346 102.794 66.9596 103.21C66.4949 103.498 65.9618 103.65 65.4238 103.65ZM25.3749 93.9782L64.7879 103.332C65.4923 103.498 66.221 103.381 66.8373 103.005C67.4536 102.623 67.884 102.027 68.0503 101.323L84.92 30.3535L28.6275 16.9972L14.5459 76.2431L25.3749 93.9782Z" fill="#545267"/>
<path d="M65.4237 104.407C65.1352 104.407 64.8466 104.373 64.558 104.305L25.0961 94.9409C24.8662 94.8872 24.6705 94.7455 24.5482 94.5451L13.6654 76.722C13.5431 76.5216 13.5089 76.287 13.5627 76.0622L27.6835 16.6453C27.7373 16.4205 27.8791 16.2201 28.0797 16.098C28.2802 15.9758 28.5199 15.9367 28.7449 15.9904L85.2721 29.4054C85.4971 29.4592 85.6976 29.6009 85.8199 29.8013C85.9422 30.0017 85.9813 30.2411 85.9275 30.4659L69.0285 101.553C68.7986 102.516 68.2068 103.332 67.3655 103.855C66.7688 104.217 66.1036 104.407 65.4237 104.407ZM25.8591 93.3136L64.964 102.594C65.4726 102.716 65.996 102.628 66.4411 102.36C66.8862 102.091 67.1943 101.656 67.3166 101.148L84.0102 30.9155L29.1949 17.9062L15.3577 76.1111L25.8591 93.3136Z" fill="#545267"/>
<path d="M25.2966 94.9409C25.0031 94.9409 24.7243 94.7894 24.5678 94.5304L13.685 76.7073C13.504 76.4141 13.5187 76.0378 13.7241 75.7592C13.9246 75.4807 14.2768 75.3487 14.6143 75.4318L25.1303 77.9291C26.3678 78.2223 27.4145 78.9798 28.0797 80.0599C28.7449 81.1399 28.9503 82.4154 28.6568 83.6518L26.1281 94.2861C26.0498 94.6233 25.771 94.8774 25.4287 94.9312C25.3895 94.9361 25.3455 94.9409 25.2966 94.9409ZM16.2186 77.5675L24.9493 91.8621L26.9987 83.2462C27.1846 82.4545 27.0574 81.6384 26.627 80.9493C26.2015 80.2602 25.5314 79.7715 24.739 79.5858L16.2186 77.5675Z" fill="#545267"/>
<path opacity="0.3" d="M14.3013 76.375L25.1841 94.1981L27.7128 83.5639C28.2117 81.4722 26.9156 79.3708 24.8222 78.8723L14.3013 76.375Z" fill="#262F6A"/>
<path opacity="0.3" d="M25.2379 94.5158L14.0469 76.1893L24.8515 78.755C25.8982 79.0043 26.7835 79.6445 27.346 80.5584C27.9085 81.4722 28.0846 82.5523 27.8351 83.5932L25.2379 94.5158ZM14.5605 76.5656L25.1352 93.8805L27.5955 83.5346C27.8302 82.5523 27.6639 81.5407 27.1357 80.6854C26.6075 79.8253 25.776 79.2242 24.7928 78.9945L14.5605 76.5656Z" fill="#545267"/>
<path opacity="0.3" d="M34.585 88.8762L32.9171 95.8842L29.3025 95.0046L25.5168 94.0858L26.3972 90.2446L27.9868 83.3098L31.6894 84.1895C33.7877 84.6831 35.0839 86.7845 34.585 88.8762Z" fill="#545267"/>
<path opacity="0.3" d="M26.7379 24.4693L83.0086 37.8245L84.3368 32.2378L28.0661 18.8826L26.7379 24.4693Z" fill="#545267"/>
<path d="M86.671 25.6522C85.458 23.6779 83.4868 22.1726 81.0559 21.596L75.3577 20.2422C68.5737 18.6344 66.133 15.4138 66.7248 8.06368C67.2286 4.89197 65.2085 1.81801 62.0293 1.0654C59.0114 0.347003 55.9887 1.96951 54.8539 4.75025C54.849 4.76491 54.8393 4.77957 54.8344 4.79423C52.0317 11.9636 48.3976 13.8451 41.4815 12.203L35.8713 10.8737C31.0046 9.72039 26.1232 12.7259 24.9689 17.5837L87.7764 32.4892C88.3486 30.0604 87.884 27.6217 86.671 25.6522ZM59.5152 11.7778C57.8913 11.3918 56.8887 9.76927 57.2751 8.14676C57.6615 6.52425 59.2853 5.52241 60.9092 5.90848C62.5331 6.29456 63.5358 7.91707 63.1494 9.53957C62.763 11.1621 61.1391 12.1639 59.5152 11.7778Z" fill="#B5B4BF"/>
<path d="M87.8595 32.6358L87.7421 32.6065L24.8173 17.6765L24.8466 17.5592C26.0156 12.6379 30.9704 9.5884 35.8958 10.7564L41.5059 12.0857C48.4074 13.7229 51.9926 11.7387 54.717 4.75021L54.7366 4.70134C55.9202 1.79842 58.9968 0.219902 62.0537 0.943188C65.2526 1.70068 67.3558 4.83818 66.8373 8.0783C66.2601 15.2378 68.5737 18.5073 75.3822 20.12L81.0804 21.4737C83.4673 22.0406 85.4873 23.5019 86.7737 25.5886C88.0601 27.6705 88.4563 30.1336 87.8889 32.5136L87.8595 32.6358ZM25.1108 17.4957L87.6786 32.3426C88.1872 30.0603 87.7959 27.7145 86.5634 25.7206C85.3112 23.6925 83.345 22.2703 81.0217 21.7181L75.3235 20.3644C68.3731 18.7125 66.0058 15.3796 66.5927 8.05386C67.0916 4.92614 65.0716 1.91571 61.995 1.18265C59.1044 0.498466 56.0816 2.04766 54.9615 4.79419L54.942 4.83818C52.1589 11.9635 48.5003 13.9916 41.4473 12.3154L35.8371 10.9861C31.0829 9.86208 26.2993 12.7748 25.1108 17.4957ZM60.2147 11.9831C59.975 11.9831 59.7304 11.9537 59.4908 11.9C58.6739 11.7045 57.9843 11.206 57.5441 10.4925C57.1039 9.779 56.9669 8.93842 57.1626 8.12228C57.5637 6.44113 59.2609 5.3953 60.9434 5.79604C62.626 6.19678 63.6727 7.89259 63.2716 9.57374C62.9293 11.0105 61.6331 11.9831 60.2147 11.9831ZM60.2147 5.94754C58.9038 5.94754 57.7153 6.84187 57.3974 8.17115C57.2164 8.92376 57.3435 9.70081 57.7495 10.3557C58.1555 11.0154 58.7913 11.4748 59.5446 11.6507C61.1 12.0222 62.6602 11.0545 63.032 9.50532C63.3988 7.95124 62.4352 6.39226 60.8847 6.02085C60.6598 5.97198 60.4348 5.94754 60.2147 5.94754Z" fill="#545267"/>
<path opacity="0.55" d="M62.9929 7.66783C63.2374 8.23961 63.3059 8.88959 63.1494 9.53957C62.763 11.1621 61.1391 12.1639 59.5152 11.7778C59.1729 11.6948 58.8549 11.5579 58.5761 11.3771C58.9381 12.2275 59.6864 12.9068 60.6598 13.1365C62.2836 13.5225 63.9075 12.5207 64.2939 10.8982C64.5972 9.61776 64.0396 8.33735 62.9929 7.66783ZM62.0244 1.0654C59.0066 0.347004 55.9789 1.96951 54.8442 4.75025C54.8393 4.76491 54.8344 4.77957 54.8246 4.79423C52.022 11.9636 48.3878 13.8451 41.4668 12.203L35.8567 10.8737C30.9899 9.72039 26.1135 12.7259 24.9543 17.5837L26.402 17.9258C27.9525 13.6691 32.4818 11.1572 36.9963 12.2323L42.6065 13.5616C49.5226 15.2037 53.1616 13.3222 55.9594 6.15284C55.9642 6.13818 55.974 6.12351 55.9789 6.10885C57.1137 3.32811 60.1364 1.71049 63.1543 2.424C64.1912 2.66836 65.1058 3.16195 65.8493 3.82659C65.0276 2.48754 63.6874 1.46125 62.0244 1.0654Z" fill="white"/>
<path fill-rule="evenodd" clip-rule="evenodd" d="M54.0674 4.41289C55.3632 1.25813 58.7962 -0.582728 62.227 0.23362C65.8346 1.08781 68.1291 4.56692 67.5755 8.16417C67.2915 11.74 67.7634 14.129 68.9705 15.8076C70.1788 17.488 72.2462 18.6261 75.5553 19.4104L75.5558 19.4105L81.2537 20.7642C83.9134 21.3951 86.0724 23.0436 87.4003 25.2048C88.7269 27.359 89.2357 30.0281 88.6096 32.6855C88.5575 32.9066 88.4196 33.0979 88.2262 33.2172C88.0327 33.3365 87.7998 33.3741 87.5786 33.3216L24.7711 18.4161C24.3112 18.3069 24.0269 17.846 24.1361 17.3864C25.3997 12.0688 30.7427 8.77969 36.0689 10.0419C36.0689 10.0419 36.0689 10.0419 36.0689 10.0419L41.679 11.3712L41.6794 11.3713C45.0528 12.1722 47.4382 12.0655 49.2895 11.053C51.1489 10.0361 52.6602 8.00246 54.0336 4.49243C54.0441 4.46444 54.0539 4.44201 54.0608 4.42709C54.0632 4.42189 54.0654 4.41711 54.0674 4.41289ZM55.623 5.12788C55.6245 5.12482 55.626 5.12153 55.6276 5.11804C55.6336 5.10488 55.6421 5.08586 55.6511 5.06233C56.633 2.67168 59.2357 1.27988 61.8309 1.89768L61.832 1.89793C64.5714 2.54642 66.3137 5.19593 65.8795 7.92995C65.876 7.95167 65.8734 7.97351 65.8716 7.99542C65.5691 11.7522 66.0225 14.6395 67.5802 16.8057C69.1402 18.975 71.685 20.251 75.1598 21.0746C75.1599 21.0746 75.1601 21.0747 75.1602 21.0747L80.858 22.4283L80.8582 22.4284C83.0602 22.9508 84.8435 24.3126 85.9415 26.1L85.942 26.1008C86.9005 27.657 87.3429 29.5351 87.0967 31.4492L26.0425 16.9597C27.4115 13.0513 31.5481 10.7285 35.6738 11.7062L35.6739 11.7062L41.2836 13.0354C41.2838 13.0354 41.2839 13.0355 41.284 13.0355C44.8265 13.8765 47.7161 13.8635 50.1115 12.5534C52.4925 11.2512 54.1965 8.76954 55.623 5.12788ZM60.7111 6.74082C59.5485 6.4644 58.3851 7.18073 58.1078 8.34506C57.8312 9.50673 58.5481 10.6691 59.7134 10.9462C60.876 11.2226 62.0394 10.5063 62.3167 9.34192C62.5933 8.18025 61.8764 7.01787 60.7111 6.74082ZM56.4424 7.94911C56.9379 5.86844 59.0223 4.58107 61.1074 5.07681C63.1898 5.57191 64.4782 7.65453 63.9821 9.73788C63.4866 11.8186 61.4022 13.1059 59.3171 12.6102C57.2347 12.1151 55.9463 10.0324 56.4424 7.94911Z" fill="#545267"/>
<path opacity="0.25" d="M65.4824 21.6106C65.2623 22.5391 61.6184 22.4756 57.3485 21.4591C53.0785 20.4475 49.7965 18.8689 50.0166 17.9404C50.2367 17.0119 53.6996 17.8329 57.9696 18.8445C62.2445 19.8561 65.7026 20.682 65.4824 21.6106Z" fill="white"/>
<path fill-rule="evenodd" clip-rule="evenodd" d="M30.9593 32.8537C31.0685 32.3941 31.5299 32.11 31.9898 32.2191L61.6743 39.2614C62.1343 39.3705 62.4186 39.8315 62.3094 40.2911C62.2002 40.7506 61.7388 41.0347 61.2789 40.9256L31.5944 33.8833C31.1344 33.7742 30.8501 33.3132 30.9593 32.8537Z" fill="#545267"/>
<path fill-rule="evenodd" clip-rule="evenodd" d="M23.3095 67.4785C23.4187 67.019 23.8801 66.7349 24.3401 66.844L54.0246 73.8862C54.4845 73.9954 54.7688 74.4564 54.6596 74.9159C54.5504 75.3755 54.089 75.6596 53.6291 75.5504L23.9446 68.5082C23.4847 68.3991 23.2003 67.9381 23.3095 67.4785Z" fill="#545267"/>
<path fill-rule="evenodd" clip-rule="evenodd" d="M28.6176 40.859C28.7293 40.4 29.1922 40.1185 29.6516 40.2301L68.3407 49.6328C68.8 49.7444 69.0818 50.207 68.9701 50.6659C68.8584 51.1249 68.3954 51.4065 67.9361 51.2948L29.247 41.8921C28.7876 41.7805 28.5058 41.3179 28.6176 40.859Z" fill="#545267"/>
<path fill-rule="evenodd" clip-rule="evenodd" d="M26.842 49.3429C26.9537 48.884 27.4167 48.6024 27.876 48.7141L66.5651 58.1168C67.0245 58.2284 67.3063 58.691 67.1945 59.1499C67.0828 59.6089 66.6199 59.8904 66.1605 59.7788L27.4714 50.3761C27.0121 50.2644 26.7303 49.8019 26.842 49.3429Z" fill="#545267"/>
</svg>
