<svg width="141" height="99" viewBox="0 0 141 99" fill="none" xmlns="http://www.w3.org/2000/svg">
<path d="M141 20.5V99H17.5C17.5 99 8 95.5 9.5 89C13.0978 73.4097 77.5 13.5 114.5 7.5C125.878 5.65485 135.631 10.2995 141 20.5Z" fill="#F3F2F2"/>
<g clip-path="url(#clip0_122_0)">
<path d="M36.8407 82.5764C36.4964 82.6528 36.1139 82.691 35.8078 82.691L35.6165 80.2847C36.0756 80.2465 36.573 80.1702 37.1085 80.0556C44.3007 78.4896 43.4973 64.8542 42.6174 50.4549C42.1201 42.0139 41.5845 33.3056 42.6939 26.4306C43.9947 18.2188 47.476 13.7882 53.3292 12.8333C53.3292 12.8333 53.3292 12.8333 53.3674 12.8333L53.75 15.2014C43.0765 16.9201 44.0712 33.8785 45.0658 50.3021C46.0222 65.7708 46.9021 80.3993 37.6441 82.4236C37.3381 82.5 37.0703 82.5382 36.8407 82.5764Z" fill="#545267"/>
<path d="M98.1059 26.8958C91.6023 12.5729 73.0098 10.9305 63.5223 27.3924C62.145 29.7604 59.161 30.5625 56.7892 29.1493C40.4537 19.4479 25.0365 29.9514 26.4137 45.6111C27.5614 58.6736 48.7553 76.816 69.6815 84.6076C73.1628 85.9062 77.1032 84.875 79.5134 82.0486C93.936 65.0139 103.538 38.8507 98.1059 26.8958Z" fill="#D0154B"/>
<path d="M97.9529 22.0833C96.0783 16.6979 91.9084 12.191 86.3995 10.243C78.2509 7.34027 69.7197 10.8542 64.2491 17.0798C61.9537 19.7153 60.1174 22.7326 58.702 25.941C40.4537 9.51735 20.331 20.25 21.0961 38.4687C21.4404 47.1771 28.3648 55.1597 34.1797 61.0035C39.5738 66.3889 45.7331 72.5 53.3843 74.3715C76.4911 79.9861 95.9253 57.2604 98.718 36.3299C99.1388 33.1979 99.2153 30.0278 98.9475 26.8958C98.8327 25.2535 98.4884 23.6493 97.9529 22.0833Z" fill="#E74977"/>
<path d="M77.3158 20.7014C78.54 19.4792 79.879 18.2951 81.4857 17.8368C82.2126 17.6076 83.169 17.684 83.5898 18.4479C83.8959 19.059 83.6664 19.8229 83.322 20.3958C82.4039 21.9236 80.7589 22.6111 79.3434 23.566C76.2829 25.5903 73.7963 28.684 70.2002 29.4479C69.5116 29.6007 68.7847 29.6389 68.1344 29.257C68.0961 28.9896 68.2491 28.7222 68.4404 28.5695C68.6699 28.4549 68.8995 28.4167 69.129 28.3403C70.6593 27.9583 72.1512 26.4306 73.1842 25.1701C74.4849 23.566 75.9004 22.1146 77.3158 20.7014Z" fill="#F67A9E"/>
<path d="M32.8238 40.066C32.5178 41.8993 32.556 43.809 33.3977 45.4896C33.742 46.1771 34.4689 46.9028 35.1957 46.6354C35.8078 46.4062 35.9991 45.6423 36.0756 44.993C36.6112 41.1736 37.6441 37.2396 40.3221 34.4896C41.3932 33.3819 42.6557 32.5035 43.5738 31.2812C43.7651 31.0139 43.9181 30.7465 43.9564 30.441C44.4537 26.6597 37.9119 31.434 37.2233 32.0069C34.8514 33.993 33.3212 37.0104 32.8238 40.066Z" fill="#F67A9E"/>
<path d="M48.1646 29.7153C49.0828 29.9444 50.2687 29.868 51.0338 29.7535C51.3016 29.7153 51.6077 29.6389 51.8372 29.5243C52.0667 29.3715 52.258 29.1423 52.258 28.8368C52.258 26.8125 49.1975 26.9653 47.9733 27.4236C47.5525 27.5764 47.0552 27.8055 46.9021 28.2639C46.7491 28.7222 47.0169 29.2187 47.4377 29.4479C47.629 29.5625 47.8968 29.6389 48.1646 29.7153Z" fill="#F67A9E"/>
<path fill-rule="evenodd" clip-rule="evenodd" d="M68.7541 15.9467C72.9934 11.0848 79.822 6.6145 89.9465 8.40118C96.7938 9.60952 100.934 14.4677 102.932 21.0104C104.919 27.5152 104.835 35.783 103.256 44.1813C101.674 52.5941 98.5747 61.2295 94.439 68.5045C90.314 75.7606 85.0988 81.7656 79.2291 84.7758C78.5457 85.1262 77.6617 85.1402 76.7939 85.0341C75.8845 84.9228 74.8065 84.6539 73.6086 84.2597C71.2082 83.4696 68.2084 82.1365 64.8976 80.3786C58.272 76.8607 50.3007 71.5883 43.238 65.3874C36.1903 59.1997 29.9644 52.0154 26.9415 44.6565C23.8923 37.2336 24.0945 29.5749 30.0166 22.7316C33.3665 18.8606 37.2524 17.0917 41.1882 16.6565C45.0937 16.2246 48.9899 17.1106 52.4076 18.439C55.8306 19.7694 58.831 21.5661 60.9692 23.0227C61.9458 23.6879 62.7469 24.2853 63.3312 24.7398C63.5501 24.2136 63.8427 23.5544 64.2152 22.8042C65.1653 20.8909 66.6434 18.3674 68.7541 15.9467ZM63.1149 27.1391L63.1134 27.1378L63.1045 27.1301L63.0652 27.0964C63.0295 27.066 62.975 27.0198 62.9025 26.9595C62.7574 26.8389 62.5406 26.6616 62.2587 26.44C61.6946 25.9964 60.8714 25.376 59.8432 24.6756C57.7824 23.2717 54.9192 21.561 51.683 20.3031C48.4415 19.0432 44.8831 18.26 41.408 18.6444C37.9632 19.0253 34.5424 20.5581 31.5289 24.0403C26.201 30.197 25.9657 37.0175 28.7915 43.8966C31.6436 50.8399 37.6052 57.7805 44.5575 63.8845C51.4948 69.9753 59.336 75.1612 65.8355 78.6121C69.0871 80.3386 71.9779 81.6174 74.2338 82.3599C75.364 82.7319 76.3055 82.9594 77.0368 83.0489C77.8096 83.1434 78.1873 83.0623 78.3164 82.9961C83.6967 80.237 88.669 74.6075 92.7003 67.5161C96.7208 60.4438 99.7468 52.0192 101.29 43.8117C102.836 35.5899 102.877 27.6774 101.019 21.5945C99.1736 15.5494 95.5017 11.4124 89.599 10.3707C80.3503 8.73862 74.1789 12.7683 70.2615 17.2611C68.2939 19.5178 66.9045 21.8853 66.0066 23.6937C65.5585 24.5961 65.235 25.3548 65.0248 25.8843C64.9197 26.1489 64.843 26.356 64.7933 26.4947C64.7685 26.564 64.7504 26.6163 64.7389 26.65L64.7266 26.6867L64.724 26.6943L64.7239 26.6947L64.7237 26.6953C64.6199 27.0146 64.3627 27.2604 64.039 27.3499C63.7153 27.4393 63.3683 27.3602 63.1152 27.1394L63.1151 27.1393L63.1149 27.1391Z" fill="#545267"/>
<path opacity="0.5" d="M12.1272 41.8229C12.8541 45.1076 10.75 48.3924 7.45997 49.1181C4.16994 49.8438 0.8799 47.7431 0.153031 44.4583C-0.573837 41.1736 1.53026 37.8889 4.82029 37.1632C8.11033 36.4375 11.4004 38.5 12.1272 41.8229Z" fill="#00B4E5"/>
<path d="M10.8265 42.1285C11.3238 44.4583 9.87011 46.7882 7.49822 47.2847C5.16459 47.7813 2.83096 46.3299 2.33363 43.9618C1.8363 41.6319 3.29004 39.3021 5.66192 38.8056C7.99555 38.309 10.3292 39.7986 10.8265 42.1285Z" fill="#A2C6DB"/>
<path d="M35.7696 82.7292C28.1183 83.3021 26.2055 75.9305 23.9867 67.375C23.0303 63.6701 21.9208 59.4305 20.2376 55.3055C16.9858 47.2847 13.734 44.7639 11.5916 44.0764C9.56407 43.4271 8.14859 44.2673 8.11033 44.3055L6.77136 42.2812C6.84787 42.2048 9.10499 40.7535 12.242 41.7083C16.1441 42.8923 19.5872 47.1701 22.4947 54.3889C24.2162 58.6667 25.3256 62.9444 26.3203 66.7257C28.7304 75.9305 30.2224 80.7048 35.6166 80.2847L35.7696 82.7292Z" fill="#545267"/>
<path d="M94.3399 83.875H94.3016L93.9191 81.5069H93.9573C99.7723 80.5521 105.587 76.3507 104.784 52.4792L107.194 52.4028C107.883 72.875 104.057 82.2708 94.3399 83.875Z" fill="#545267"/>
<path d="M94.2633 83.875C93.8425 83.9514 93.3834 83.9896 92.9244 84.0278C80.9502 85.059 76.5125 66.4583 72.1512 48.4688C68.0196 31.3194 63.7731 13.5972 53.6735 15.2396L53.2909 12.8715C65.6094 10.8854 70.1237 29.7153 74.5231 47.934C78.6165 64.9306 82.8247 82.5 92.7331 81.6597C93.1157 81.6215 93.5365 81.5833 93.8808 81.5069L94.2633 83.875Z" fill="#545267"/>
<path d="M90.2464 33.7257C88.831 29.1042 87.798 24.559 86.9182 20.3576C85.7705 14.8194 86.3061 10.4653 88.5249 7.79167C90.1317 5.84375 92.5801 4.8125 95.4493 4.8125V6.41667C93.766 6.41667 91.4324 6.79861 89.7874 8.78472C87.8746 11.0764 87.4537 14.9722 88.4867 20.0139C89.3666 24.1771 90.3612 28.684 91.7767 33.2292L90.2464 33.7257Z" fill="#00B4E5"/>
<path d="M119.704 33.2674C115.84 44.9549 111.249 50.875 105.97 50.7986C100.69 50.7604 96.1762 44.7639 92.5418 33L89.4813 33.9549C93.6513 47.3993 99.0071 53.9306 105.931 54.0069C106.544 54.0069 107.117 53.9688 107.73 53.8542C113.812 52.8611 118.747 46.4063 122.764 34.2222L119.704 33.2674Z" fill="#545267"/>
<path d="M121.999 33.993L120.469 33.4965C121.961 28.9896 123.032 24.4826 123.988 20.3194C125.136 15.316 124.754 11.4201 122.917 9.05208C121.311 7.02777 118.977 6.56944 117.294 6.56944V4.96527C120.163 5.00347 122.573 6.07291 124.141 8.05902C126.322 10.809 126.781 15.1632 125.519 20.6632C124.639 24.9028 123.529 29.4097 121.999 33.993Z" fill="#00B4E5"/>
<path d="M94.932 3.99494L92.5142 4.37946L93.0438 7.69855L95.4616 7.31404L94.932 3.99494Z" fill="#545267"/>
<path d="M102.144 4.58333C102.144 4.50694 102.106 4.43055 102.068 4.35416C101.417 2.90277 98.3567 2.52083 97.4768 2.44444C96.5587 2.36805 95.7553 2.7118 94.9519 4.04861L95.105 5.04166L95.3345 6.37847L95.4875 7.37152C96.6352 8.36458 97.5151 8.47916 98.3567 8.09722C99.1601 7.75347 101.991 6.41666 102.144 4.85069C102.144 4.73611 102.144 4.65972 102.144 4.58333Z" fill="#00B4E5"/>
<path d="M107.959 2.63541C108.265 4.54514 105.817 6.53125 102.527 7.06597C99.2366 7.60069 96.2909 6.45486 95.9849 4.54514C95.6788 2.63541 98.1272 0.649303 101.417 0.114581C104.746 -0.381947 107.653 0.725692 107.959 2.63541Z" fill="#72717F"/>
<path d="M117.446 7.31057L119.869 7.66379L120.355 4.33797L117.932 3.98475L117.446 7.31057Z" fill="#545267"/>
<path d="M110.752 4.62153C110.752 4.54514 110.79 4.46875 110.828 4.39236C111.44 2.94098 114.539 2.52084 115.419 2.40625C116.337 2.29167 117.141 2.67361 117.944 3.97223L117.791 4.96528L117.6 6.34028L117.447 7.33334C116.299 8.36459 115.419 8.47917 114.577 8.09723C113.774 7.75348 110.943 6.45486 110.752 4.88889C110.752 4.8125 110.752 4.73611 110.752 4.62153Z" fill="#00B4E5"/>
<path d="M116.928 4.52589C117.209 2.6056 114.742 0.656005 111.418 0.171355C108.093 -0.313295 105.171 0.850526 104.89 2.77082C104.609 4.69111 107.076 6.64069 110.4 7.12534C113.725 7.60999 116.647 6.44618 116.928 4.52589Z" fill="#545267"/>
<path d="M9.94663 42.2813C10.4057 44.382 9.06674 46.4827 6.96264 46.941C4.85855 47.3993 2.75446 46.0625 2.29538 43.9618C1.83631 41.8611 3.17528 39.7604 5.27937 39.3021C7.42172 38.8438 9.48756 40.1806 9.94663 42.2813Z" fill="#545267"/>
</g>
<defs>
<clipPath id="clip0_122_0">
<rect width="129" height="88" fill="white"/>
</clipPath>
</defs>
</svg>
