<svg width="20" height="24" viewBox="0 0 20 24" fill="none" xmlns="http://www.w3.org/2000/svg">
<path fill-rule="evenodd" clip-rule="evenodd" d="M15.9967 12.8894C16.0194 11.1252 16.9443 9.49568 18.4473 8.57167C17.4948 7.21137 15.9567 6.37984 14.2969 6.32791C12.5507 6.14461 10.8578 7.37283 9.9679 7.37283C9.06083 7.37283 7.69077 6.34611 6.21543 6.37646C4.27428 6.43917 2.50847 7.51608 1.56406 9.21316C-0.447048 12.6952 1.05306 17.8125 2.97957 20.6272C3.94345 22.0054 5.06994 23.5449 6.54395 23.4903C7.98635 23.4305 8.52506 22.5705 10.2662 22.5705C11.9911 22.5705 12.4965 23.4903 14.0004 23.4556C15.5482 23.4305 16.5233 22.0712 17.4534 20.68C18.146 19.6979 18.6789 18.6126 19.0324 17.4641C17.1941 16.6866 15.9989 14.8853 15.9967 12.8894Z" fill="#333333"/>
<path fill-rule="evenodd" clip-rule="evenodd" d="M13.1561 4.47682C14 3.46375 14.4158 2.16161 14.3151 0.846931C13.0258 0.982346 11.8349 1.59855 10.9796 2.57275C10.135 3.53394 9.70715 4.79143 9.79025 6.06825C11.0968 6.0817 12.3374 5.49515 13.1561 4.47682Z" fill="#333333"/>
</svg>
