<svg width="24" height="24" viewBox="0 0 24 24" fill="none" xmlns="http://www.w3.org/2000/svg">
<mask id="mask0_63_1793" style="mask-type:alpha" maskUnits="userSpaceOnUse" x="0" y="0" width="14" height="24">
<path fill-rule="evenodd" clip-rule="evenodd" d="M0.812041 23.4997L0.737425 23.4336C0.444001 23.147 0.270569 22.7021 0.270569 22.126V22.2609V1.67246C0.270569 1.67432 0.270569 1.67618 0.270569 1.67804V1.81393C0.270569 1.19035 0.473243 0.719401 0.811033 0.438324L13.3042 11.969L0.812041 23.4997ZM0.270797 1.67154C0.270797 1.62035 0.272813 1.57009 0.27483 1.52169C0.272813 1.57009 0.270797 1.62035 0.270797 1.67154Z" fill="white"/>
</mask>
<g mask="url(#mask0_63_1793)">
<path fill-rule="evenodd" clip-rule="evenodd" d="M0.812041 23.4997L0.737425 23.4336C0.444001 23.147 0.270569 22.7021 0.270569 22.126V22.2609V1.67246C0.270569 1.67432 0.270569 1.67618 0.270569 1.67804V1.81393C0.270569 1.19035 0.473243 0.719401 0.811033 0.438324L13.3042 11.969L0.812041 23.4997ZM0.270797 1.67154C0.270797 1.62035 0.272813 1.57009 0.27483 1.52169C0.272813 1.57009 0.270797 1.62035 0.270797 1.67154Z" fill="#333333"/>
</g>
<mask id="mask1_63_1793" style="mask-type:alpha" maskUnits="userSpaceOnUse" x="13" y="8" width="11" height="8">
<path fill-rule="evenodd" clip-rule="evenodd" d="M17.4687 15.9507L17.5635 15.9004L22.4972 13.313C22.9681 13.0664 23.2817 12.7676 23.438 12.4502C23.2817 12.7676 22.9681 13.0664 22.4972 13.314L17.5635 15.9014L17.4687 15.9507ZM17.4701 15.8139L13.3057 11.9691L17.4701 8.12518L22.4976 10.7619C23.1369 11.096 23.4948 11.5279 23.5543 11.9691C23.5543 11.9691 23.5543 11.97 23.5543 11.9709C23.4948 12.4102 23.1369 12.8421 22.4976 13.1771L17.4701 15.8139Z" fill="white"/>
</mask>
<g mask="url(#mask1_63_1793)">
<path fill-rule="evenodd" clip-rule="evenodd" d="M17.4687 15.9507L17.5635 15.9004L22.4972 13.313C22.9681 13.0664 23.2817 12.7676 23.438 12.4502C23.2817 12.7676 22.9681 13.0664 22.4972 13.314L17.5635 15.9014L17.4687 15.9507ZM17.4701 15.8139L13.3057 11.9691L17.4701 8.12518L22.4976 10.7619C23.1369 11.096 23.4948 11.5279 23.5543 11.9691C23.5543 11.9691 23.5543 11.97 23.5543 11.9709C23.4948 12.4102 23.1369 12.8421 22.4976 13.1771L17.4701 15.8139Z" fill="#B1B1B1"/>
</g>
<mask id="mask2_63_1793" style="mask-type:alpha" maskUnits="userSpaceOnUse" x="0" y="11" width="18" height="13">
<path fill-rule="evenodd" clip-rule="evenodd" d="M1.70323 23.939C1.35435 23.939 1.05084 23.8339 0.812877 23.6365V23.6356C1.05084 23.8339 1.35536 23.939 1.70424 23.939C1.73449 23.939 1.76575 23.9381 1.79701 23.9362C1.76575 23.9381 1.73449 23.939 1.70323 23.939ZM1.70392 23.8022C1.35504 23.8032 1.05053 23.698 0.812561 23.4998L13.3048 11.9691L17.4691 15.8139L2.83325 23.4905C2.42891 23.7027 2.04474 23.8022 1.70392 23.8022Z" fill="white"/>
</mask>
<g mask="url(#mask2_63_1793)">
<path fill-rule="evenodd" clip-rule="evenodd" d="M1.70323 23.939C1.35435 23.939 1.05084 23.8339 0.812877 23.6365V23.6356C1.05084 23.8339 1.35536 23.939 1.70424 23.939C1.73449 23.939 1.76575 23.9381 1.79701 23.9362C1.76575 23.9381 1.73449 23.939 1.70323 23.939ZM1.70392 23.8022C1.35504 23.8032 1.05053 23.698 0.812561 23.4998L13.3048 11.9691L17.4691 15.8139L2.83325 23.4905C2.42891 23.7027 2.04474 23.8022 1.70392 23.8022Z" fill="#7F7F7F"/>
</g>
<mask id="mask3_63_1793" style="mask-type:alpha" maskUnits="userSpaceOnUse" x="0" y="0" width="18" height="12">
<path fill-rule="evenodd" clip-rule="evenodd" d="M13.3046 11.969L0.811424 0.438336C1.04939 0.241023 1.3529 0.135852 1.70178 0.135852C2.0436 0.135852 2.42778 0.23637 2.83312 0.449504L17.469 8.12515L13.3046 11.969ZM17.5625 8.03861L2.8328 0.313637C2.42745 0.100502 2.04328 -1.52588e-05 1.70145 -1.52588e-05C1.70044 -1.52588e-05 1.69843 -1.52588e-05 1.69742 -1.52588e-05C1.69843 -1.52588e-05 1.70044 -1.52588e-05 1.70246 -1.52588e-05C2.04428 -1.52588e-05 2.42745 0.100502 2.8328 0.312707L17.5625 8.03768V8.03861Z" fill="white"/>
</mask>
<g mask="url(#mask3_63_1793)">
<path fill-rule="evenodd" clip-rule="evenodd" d="M13.3046 11.969L0.811424 0.438336C1.04939 0.241023 1.3529 0.135852 1.70178 0.135852C2.0436 0.135852 2.42778 0.23637 2.83312 0.449504L17.469 8.12515L13.3046 11.969ZM17.5625 8.03861L2.8328 0.313637C2.42745 0.100502 2.04328 -1.52588e-05 1.70145 -1.52588e-05C1.70044 -1.52588e-05 1.69843 -1.52588e-05 1.69742 -1.52588e-05C1.69843 -1.52588e-05 1.70044 -1.52588e-05 1.70246 -1.52588e-05C2.04428 -1.52588e-05 2.42745 0.100502 2.8328 0.312707L17.5625 8.03768V8.03861Z" fill="#E5E5E5"/>
</g>
<path fill-rule="evenodd" clip-rule="evenodd" d="M1.79688 23.9362C2.11349 23.9195 2.46439 23.819 2.83344 23.6263L17.4683 15.9507L2.83344 23.6263C2.46439 23.8199 2.11349 23.9204 1.79688 23.9362Z" fill="black"/>
<mask id="mask4_63_1793" style="mask-type:alpha" maskUnits="userSpaceOnUse" x="17" y="15" width="1" height="1">
<path fill-rule="evenodd" clip-rule="evenodd" d="M17.4685 15.9506L17.5633 15.9004L17.4685 15.9506Z" fill="white"/>
</mask>
<g mask="url(#mask4_63_1793)">
<path fill-rule="evenodd" clip-rule="evenodd" d="M17.4685 15.9506L17.5633 15.9004L17.4685 15.9506Z" fill="url(#paint0_linear_63_1793)"/>
</g>
<path fill-rule="evenodd" clip-rule="evenodd" d="M0.737592 23.5695C0.444168 23.2829 0.270736 22.838 0.270736 22.2619V22.2609C0.270736 22.838 0.444168 23.2829 0.737592 23.5686V23.5695Z" fill="black"/>
<mask id="mask5_63_1793" style="mask-type:alpha" maskUnits="userSpaceOnUse" x="0" y="22" width="1" height="2">
<path fill-rule="evenodd" clip-rule="evenodd" d="M0.737326 23.5686C0.443902 23.2829 0.270469 22.838 0.270469 22.2609V22.126C0.270469 22.7021 0.443902 23.147 0.737326 23.4336L0.811943 23.4997L0.737326 23.5686Z" fill="white"/>
</mask>
<g mask="url(#mask5_63_1793)">
<path fill-rule="evenodd" clip-rule="evenodd" d="M0.737326 23.5686C0.443902 23.2829 0.270469 22.838 0.270469 22.2609V22.126C0.270469 22.7021 0.443902 23.147 0.737326 23.4336L0.811943 23.4997L0.737326 23.5686Z" fill="url(#paint1_linear_63_1793)"/>
</g>
<mask id="mask6_63_1793" style="mask-type:alpha" maskUnits="userSpaceOnUse" x="0" y="23" width="1" height="1">
<path fill-rule="evenodd" clip-rule="evenodd" d="M0.737426 23.5695V23.5686L0.812042 23.4997L0.737426 23.5695Z" fill="white"/>
</mask>
<g mask="url(#mask6_63_1793)">
<path fill-rule="evenodd" clip-rule="evenodd" d="M0.737426 23.5695V23.5686L0.812042 23.4997L0.737426 23.5695Z" fill="url(#paint2_linear_63_1793)"/>
</g>
<path fill-rule="evenodd" clip-rule="evenodd" d="M23.4368 12.4502C23.5145 12.2939 23.5528 12.1319 23.5528 11.9709C23.5528 11.97 23.5538 11.97 23.5538 11.97C23.5538 12.1319 23.5145 12.2929 23.4368 12.4502Z" fill="black"/>
<path fill-rule="evenodd" clip-rule="evenodd" d="M23.555 11.969H23.554C23.554 11.4823 23.202 10.9955 22.4972 10.626L17.5635 8.03859V8.03766L22.4972 10.626C23.202 10.9955 23.555 11.4823 23.555 11.969Z" fill="#404040"/>
<path fill-rule="evenodd" clip-rule="evenodd" d="M0.27562 1.51147C0.334103 0.555624 0.896751 0.00370762 1.69333 -1.52588e-05C1.34848 0.00184618 1.048 0.106087 0.812051 0.302468L0.809026 0.305261C0.784826 0.325736 0.760626 0.347143 0.737435 0.36948C0.473252 0.62822 0.305869 1.0154 0.27562 1.51147Z" fill="#404040"/>
<mask id="mask7_63_1793" style="mask-type:alpha" maskUnits="userSpaceOnUse" x="0" y="0" width="1" height="2">
<path fill-rule="evenodd" clip-rule="evenodd" d="M0.270973 1.81398V1.67158C0.270973 1.6204 0.27299 1.57014 0.275007 1.52174L0.276015 1.51709V1.5115C0.306265 1.01543 0.473648 0.628247 0.73783 0.369507L0.811438 0.43838C0.473648 0.719458 0.270973 1.1904 0.270973 1.81398Z" fill="white"/>
</mask>
<g mask="url(#mask7_63_1793)">
<path fill-rule="evenodd" clip-rule="evenodd" d="M0.270973 1.81398V1.67158C0.270973 1.6204 0.27299 1.57014 0.275007 1.52174L0.276015 1.51709V1.5115C0.306265 1.01543 0.473648 0.628247 0.73783 0.369507L0.811438 0.43838C0.473648 0.719458 0.270973 1.1904 0.270973 1.81398Z" fill="url(#paint3_linear_63_1793)"/>
</g>
<defs>
<linearGradient id="paint0_linear_63_1793" x1="24.3326" y1="0.709094" x2="-0.0659215" y2="0.709094" gradientUnits="userSpaceOnUse">
<stop stop-color="#CCB300"/>
<stop offset="1" stop-color="#CC7C00"/>
</linearGradient>
<linearGradient id="paint1_linear_63_1793" x1="17.6556" y1="-10.6453" x2="-2.26042" y2="-19.6263" gradientUnits="userSpaceOnUse">
<stop stop-color="#008BDE"/>
<stop offset="1" stop-color="#00C6DE"/>
</linearGradient>
<linearGradient id="paint2_linear_63_1793" x1="26.7233" y1="3.51439" x2="5.60947" y2="-19.3601" gradientUnits="userSpaceOnUse">
<stop stop-color="#DE333B"/>
<stop offset="1" stop-color="#AA0D56"/>
</linearGradient>
<linearGradient id="paint3_linear_63_1793" x1="17.1734" y1="-11.1562" x2="-2.79559" y2="-19.3592" gradientUnits="userSpaceOnUse">
<stop stop-color="#3FB8FF"/>
<stop offset="1" stop-color="#3FE8FF"/>
</linearGradient>
</defs>
</svg>
