<svg width="85" height="18" viewBox="0 0 85 18" fill="none" xmlns="http://www.w3.org/2000/svg">
<path fill-rule="evenodd" clip-rule="evenodd" d="M65.8949 13.2693H67.7609V1.07219H65.8949V13.2693ZM82.702 5.46538L80.563 10.7532H80.499L78.279 5.46538H76.269L79.598 12.8566L77.7 16.9668H79.647L84.777 5.46538H82.702ZM72.1201 11.8829C71.5081 11.8829 70.6561 11.5854 70.6561 10.8478C70.6561 9.90635 71.7181 9.54538 72.6341 9.54538C73.4551 9.54538 73.8401 9.71806 74.3391 9.95318C74.1941 11.0829 73.1971 11.8829 72.1201 11.8829ZM72.345 5.19903C70.994 5.19903 69.595 5.77951 69.016 7.06634L70.672 7.74147C71.026 7.06634 71.685 6.84683 72.377 6.84683C73.342 6.84683 74.323 7.41171 74.339 8.41561V8.54147C74.001 8.35317 73.278 8.07025 72.393 8.07025C70.608 8.07025 68.79 9.02732 68.79 10.8166C68.79 12.4478 70.254 13.4995 71.894 13.4995C73.149 13.4995 73.84 12.9503 74.275 12.3073H74.339V13.2488H76.14V8.57269C76.14 6.40683 74.484 5.19903 72.345 5.19903ZM60.813 6.95023H58.159V2.76974H60.813C62.208 2.76974 63 3.89657 63 4.86048C63 5.80584 62.208 6.95023 60.813 6.95023ZM60.765 1.07219H56.294V13.2693H58.159V8.6478H60.765C62.833 8.6478 64.866 7.18731 64.866 4.86048C64.866 2.53268 62.833 1.07219 60.765 1.07219ZM36.3829 11.8859C35.0949 11.8859 34.0149 10.8322 34.0149 9.38636C34.0149 7.92489 35.0949 6.8566 36.3829 6.8566C37.6559 6.8566 38.6549 7.92489 38.6549 9.38636C38.6549 10.8322 37.6559 11.8859 36.3829 11.8859ZM38.5261 6.14928H38.4621C38.0431 5.66148 37.2371 5.22148 36.2221 5.22148C34.0961 5.22148 32.1461 7.04489 32.1461 9.38635C32.1461 11.7132 34.0961 13.52 36.2221 13.52C37.2371 13.52 38.0431 13.08 38.4621 12.5776H38.5261V13.1746C38.5261 14.762 37.6561 15.6107 36.2541 15.6107C35.1111 15.6107 34.4021 14.8088 34.1121 14.1337L32.4851 14.7932C32.9521 15.8937 34.1921 17.2459 36.2541 17.2459C38.4461 17.2459 40.2981 15.9883 40.2981 12.9229V5.47318H38.5261V6.14928ZM41.587 13.2693H43.456V1.07219H41.587V13.2693ZM46.211 9.24487C46.162 7.64195 47.484 6.82439 48.434 6.82439C49.176 6.82439 49.804 7.18634 50.013 7.70537L46.211 9.24487ZM52.0111 7.86245C51.6571 6.93465 50.5771 5.22148 48.3701 5.22148C46.1791 5.22148 44.3581 6.90343 44.3581 9.37074C44.3581 11.6976 46.1621 13.52 48.5791 13.52C50.5291 13.52 51.6571 12.3571 52.1241 11.681L50.6741 10.7385C50.1911 11.4303 49.5301 11.8859 48.5791 11.8859C47.6281 11.8859 46.9521 11.4615 46.5171 10.6283L52.2041 8.33367L52.0111 7.86245ZM6.702 6.49464V8.25464H11.02C10.891 9.24488 10.553 9.96781 10.037 10.4712C9.409 11.0839 8.426 11.76 6.702 11.76C4.044 11.76 1.966 9.66927 1.966 7.0761C1.966 4.48293 4.044 2.3922 6.702 2.3922C8.136 2.3922 9.183 2.94245 9.957 3.64976L11.229 2.40781C10.15 1.40196 8.716 0.632202 6.702 0.632202C3.061 0.632202 0 3.52391 0 7.0761C0 10.6283 3.061 13.52 6.702 13.52C8.668 13.52 10.15 12.8917 11.31 11.7132C12.502 10.5493 12.873 8.91513 12.873 7.59513C12.873 7.18635 12.84 6.80879 12.776 6.49464H6.702ZM17.781 11.8859C16.492 11.8859 15.381 10.8488 15.381 9.37075C15.381 7.87806 16.492 6.8566 17.781 6.8566C19.07 6.8566 20.181 7.87806 20.181 9.37075C20.181 10.8488 19.07 11.8859 17.781 11.8859ZM17.781 5.22148C15.429 5.22148 13.512 6.96587 13.512 9.37074C13.512 11.76 15.429 13.52 17.781 13.52C20.133 13.52 22.05 11.76 22.05 9.37074C22.05 6.96587 20.133 5.22148 17.781 5.22148ZM27.0941 11.8859C25.8061 11.8859 24.6941 10.8488 24.6941 9.37075C24.6941 7.87806 25.8061 6.8566 27.0941 6.8566C28.3831 6.8566 29.4951 7.87806 29.4951 9.37075C29.4951 10.8488 28.3831 11.8859 27.0941 11.8859ZM27.0941 5.22148C24.7421 5.22148 22.8251 6.96587 22.8251 9.37074C22.8251 11.76 24.7421 13.52 27.0941 13.52C29.4471 13.52 31.3641 11.76 31.3641 9.37074C31.3641 6.96587 29.4471 5.22148 27.0941 5.22148Z" fill="#4A4A4A"/>
</svg>
