<svg width="212" height="40" viewBox="0 0 212 40" fill="none" xmlns="http://www.w3.org/2000/svg">
<g clip-path="url(#clip0_63_1706)">
<path d="M9.8585 21.6749C6.81453 21.6749 4.42064 21.0134 2.67686 19.6902C-0.803066 17.0516 -0.382415 11.3078 1.06692 7.67495C3.11663 2.47418 8.03441 0.0764793 13.4149 0.0764793C17.2619 0.0764793 22.8336 1.01721 22.8336 5.97705C22.8336 12.4321 15.9503 13.2428 10.979 13.2428C9.69519 13.2481 8.41212 13.1817 7.13575 13.044C6.63097 16.1797 8.64244 16.5851 11.3155 16.6233C13.2843 16.5902 15.2376 16.2681 17.1128 15.6673C17.6329 15.5258 17.9579 15.4417 18.26 15.9426L19.7514 19.0516C19.9771 19.434 19.8011 19.74 19.2237 19.9962C16.3862 21.2543 12.8795 21.6864 9.85468 21.6864L9.8585 21.6749ZM36.2409 4.45889C34.2906 4.45889 32.7992 5.30019 32.4436 7.29254L30.6654 16.891C31.8737 17.0822 33.0942 17.187 34.3174 17.2046C36.283 17.2046 39.5526 16.6654 39.5526 14.0574C39.5526 11.9541 36.5354 12.0918 35.086 12.0918C34.478 12.0918 33.9962 12.0306 34.1262 11.304L34.4627 9.41491C34.6119 8.58508 35.2734 8.53155 35.9923 8.47036C37.2161 8.37093 39.2581 7.91204 39.2581 6.30592C39.2658 4.81835 37.3461 4.44359 36.2409 4.44359V4.45889ZM25.5335 7.25047C26.478 1.70172 31.6979 -0.0114746 36.6692 -0.0114746C39.8662 -0.0114746 45.7897 0.791585 45.9426 5.10134C46.0153 7.17782 44.4933 8.89101 42.6272 9.58699V9.78202C44.7801 10.3939 46.566 11.6941 46.566 14.1071C46.566 20.1262 38.7839 21.6597 34.1683 21.6597C30.9025 21.6597 27.2199 21.3958 24.1759 20.13C23.587 19.8853 23.4111 19.5717 23.5029 18.9522L25.5335 7.25047ZM53.1128 28.5966C53.0019 29.2466 52.5889 29.2658 52.0076 29.2658H47.1625C46.631 29.2658 46.1874 29.2466 46.2983 28.5966L50.7189 2.94837C50.7782 2.65866 50.9169 2.39114 51.1195 2.17572C51.3221 1.9603 51.5806 1.80545 51.8662 1.72849C55.0669 0.523898 58.6998 0.152961 62.0994 0.152961C67.9924 0.152961 72.5813 2.35181 72.4245 8.88719C72.2333 16.8145 67.327 21.5946 59.5602 21.5946C57.8358 21.6064 56.1143 21.4489 54.4207 21.1243L53.1128 28.5966ZM60.7113 5.07457C59.4974 5.07147 58.2877 5.21659 57.109 5.50669L55.2811 16.2447C56.508 16.541 57.7665 16.6861 59.0287 16.6769C63.3881 16.6769 65.4685 13.2887 65.4685 9.24283C65.4685 6.19885 63.5488 5.07457 60.7113 5.07457ZM87.2352 4.91778C84.2945 4.91778 82.4245 6.97132 81.7094 9.67877C80.8528 12.9254 81.0134 16.8375 85.2658 16.8375C89.5182 16.8375 91.1281 12.4857 91.1281 8.85277C91.1281 6.31357 89.7897 4.91778 87.2352 4.91778ZM87.8585 0.0803042C93.5029 0.0803042 98.1836 2.47036 98.1836 8.69598C98.1836 17.1931 92.4474 21.7591 84.4895 21.6749C79.0746 21.6176 74.2065 19.6635 74.2065 13.5335C74.1736 11.5745 74.5163 9.62734 75.2161 7.79732C77.3537 2.47418 82.4436 0.0764793 87.8623 0.0764793L87.8585 0.0803042ZM111.507 4.79923C110.462 4.77927 109.417 4.84449 108.382 4.99426L105.706 20.5315C105.591 21.2008 105.22 21.239 104.6 21.239H99.8318C99.3002 21.239 98.8031 21.1855 98.9178 20.5315L101.851 3.65583C102.187 1.71701 103.361 0.780112 105.262 0.47036C107.491 0.167369 109.74 0.0395079 111.989 0.0879511C116.134 0.0879511 121.931 0.608029 123.04 5.53728C123.324 7.1068 123.307 8.71593 122.99 10.2792L121.262 20.5468C121.147 21.2199 120.776 21.2543 120.157 21.2543H115.35C114.815 21.2543 114.325 21.2008 114.436 20.5468L116.264 9.93116C116.474 8.71893 116.62 7.12046 115.786 6.10707C114.818 4.89101 112.899 4.79923 111.507 4.79923ZM164.451 4.91778C161.591 4.91778 159.591 6.72657 158.662 9.34225C157.166 13.5488 157.855 16.9598 162.964 16.8757C164.083 16.8485 165.196 16.6907 166.279 16.4054C166.849 12.6769 167.449 8.9216 168.249 5.23518C167.264 5.0671 166.268 4.9687 165.27 4.94072C164.948 4.9216 164.673 4.91778 164.451 4.91778ZM164.776 0.118545C168.04 0.128147 171.293 0.484513 174.482 1.18164C175.289 1.35755 175.541 1.64436 175.396 2.43977C174.34 8.13002 173.35 13.8547 172.562 19.5908C172.54 19.7786 172.459 19.9545 172.329 20.0922C172.2 20.23 172.029 20.3224 171.843 20.3556C168.526 21.2737 165.097 21.7242 161.656 21.6941C155.92 21.6941 151.04 19.9044 151.04 13.6635C151.013 11.7447 151.316 9.83547 151.935 8.01912C153.924 2.40535 159.151 0.118545 164.776 0.118545ZM147.185 19.9312L147.09 20.4971V20.5277C146.968 21.1778 146.616 21.2428 145.992 21.2428H141.239C140.535 21.2428 140.283 20.9866 140.375 20.4551L142.979 5.23135H137.3C136.654 7.98088 136.057 10.7533 135.235 13.4532C133.706 18.4512 130.765 20.8222 125.771 22.0268C125.273 22.1453 124.623 22.1683 124.379 21.5564L123.27 18.7266C122.987 18 123.327 17.7132 123.989 17.4684C126.91 16.3862 128.222 15.1472 129.296 11.9426C130.172 9.33461 130.662 5.99235 131.434 2.91396C131.889 1.10516 132.964 0.592733 134.75 0.592733H147.751C149.522 0.592733 150.428 1.11663 150.107 2.98279V3.02868L147.185 19.9312ZM182.509 20.4551C182.386 21.1855 182.046 21.2428 181.361 21.2428H176.662C175.958 21.2428 175.66 20.9828 175.748 20.4551L179.063 1.33461C179.151 0.83365 179.526 0.569787 180.168 0.569787H184.876C185.522 0.569787 185.908 0.569787 185.79 1.33461L184.685 8.06118H193.335L194.482 1.33461C194.566 0.83365 194.964 0.569787 195.629 0.569787H200.34C200.979 0.569787 201.381 0.569787 201.254 1.33461L197.939 20.4551C197.813 21.1816 197.537 21.2428 196.834 21.2428H192.134C191.43 21.2428 191.132 20.9828 191.22 20.4551L192.566 12.5507H183.87L182.509 20.4551ZM13.0287 4.83747C10.3518 4.83747 8.34416 6.42065 7.78967 9.04397C9.50092 9.18489 11.2216 9.16568 12.9292 8.98661C14.3289 8.826 16.0994 8.46271 16.0994 6.72658C16.1032 5.10134 14.2677 4.83747 13.0287 4.83747Z" fill="#005B95"/>
<path d="M200.398 28.1912C152.688 19.0899 107.388 24.3671 59.0248 39.304C57.6673 39.7247 57.4952 40.2486 59.2466 39.8738C103.855 30.2677 152.291 27.0784 200.226 29.1663C201.193 29.2084 202.593 29.239 202.589 28.9981C202.585 28.7572 202.149 28.5162 200.398 28.1836" fill="#F56920"/>
<path d="M208.371 1.05929C208.97 1.05929 209.556 1.23692 210.054 1.56971C210.552 1.90251 210.94 2.37553 211.169 2.92894C211.398 3.48236 211.458 4.09133 211.341 4.67884C211.225 5.26634 210.936 5.806 210.513 6.22957C210.089 6.65314 209.549 6.94159 208.962 7.05845C208.374 7.17532 207.765 7.11534 207.212 6.88611C206.658 6.65687 206.185 6.26868 205.853 5.77061C205.52 5.27255 205.342 4.68699 205.342 4.08797C205.343 3.28502 205.663 2.51526 206.23 1.94749C206.798 1.37972 207.568 1.0603 208.371 1.05929V1.05929ZM208.371 0.67688C207.696 0.67688 207.037 0.876937 206.476 1.25175C205.915 1.62657 205.478 2.15931 205.219 2.7826C204.961 3.4059 204.894 4.09175 205.025 4.75344C205.157 5.41513 205.482 6.02292 205.959 6.49997C206.436 6.97702 207.044 7.3019 207.705 7.43352C208.367 7.56513 209.053 7.49758 209.676 7.23941C210.3 6.98123 210.832 6.54402 211.207 5.98307C211.582 5.42212 211.782 4.76262 211.782 4.08797C211.781 3.18396 211.421 2.31731 210.782 1.67844C210.142 1.03956 209.275 0.680704 208.371 0.680705V0.67688Z" fill="#005B95"/>
<path d="M208.952 4.19506C209.079 4.23041 209.192 4.30543 209.273 4.40921C209.344 4.5133 209.397 4.62828 209.43 4.74955L209.744 5.89678C209.751 5.91398 209.751 5.93312 209.744 5.95032C209.744 5.95032 209.717 5.97709 209.686 5.97709H209.392H209.342C209.342 5.97709 209.312 5.95414 209.304 5.92738L209.017 4.89105C208.992 4.79441 208.95 4.70267 208.895 4.61954C208.85 4.55403 208.793 4.49812 208.727 4.4551C208.661 4.41409 208.588 4.38557 208.512 4.37097C208.429 4.35461 208.345 4.34692 208.26 4.34803H207.423V5.9159C207.426 5.92496 207.428 5.93472 207.428 5.94458C207.428 5.95444 207.426 5.9642 207.423 5.97327C207.404 5.97939 207.384 5.97939 207.365 5.97327H207.094C207.075 5.97914 207.055 5.97914 207.036 5.97327C207.032 5.9642 207.03 5.95444 207.03 5.94458C207.03 5.93472 207.032 5.92496 207.036 5.9159V2.47422C207.031 2.40739 207.05 2.34099 207.09 2.28684C207.116 2.26251 207.147 2.24409 207.18 2.23287C207.214 2.22164 207.25 2.21787 207.285 2.22183H208.497C208.653 2.21919 208.809 2.24511 208.956 2.29831C209.086 2.34636 209.204 2.42056 209.304 2.51629C209.4 2.6092 209.476 2.72123 209.526 2.84516C209.578 2.97664 209.604 3.11686 209.602 3.25816C209.605 3.45967 209.549 3.65768 209.442 3.82795C209.333 3.99613 209.169 4.12172 208.979 4.18359L208.952 4.19506ZM209.155 3.27345C209.155 3.18785 209.142 3.10269 209.117 3.02107C209.091 2.94006 209.048 2.86565 208.99 2.80309C208.922 2.74068 208.841 2.69372 208.753 2.66543C208.646 2.62451 208.532 2.60502 208.417 2.60806H207.43V3.96944H208.386C208.49 3.97876 208.595 3.9666 208.695 3.93371C208.794 3.90083 208.886 3.84791 208.964 3.77824C209.028 3.71132 209.078 3.63211 209.111 3.54537C209.144 3.45863 209.159 3.36614 209.155 3.27345V3.27345Z" fill="#005B95"/>
</g>
<defs>
<clipPath id="clip0_63_1706">
<rect width="211.79" height="40" fill="white"/>
</clipPath>
</defs>
</svg>
