<svg width="32" height="32" viewBox="0 0 32 32" fill="none" xmlns="http://www.w3.org/2000/svg">
<path d="M0.5 16C0.5 7.43959 7.43959 0.5 16 0.5C24.5604 0.5 31.5 7.43959 31.5 16C31.5 24.5604 24.5604 31.5 16 31.5C7.43959 31.5 0.5 24.5604 0.5 16Z" stroke="#333333"/>
<path fill-rule="evenodd" clip-rule="evenodd" d="M8 20.0513V16.1026H8.33333C8.53846 16.1026 8.66667 16.1124 8.66667 16.1282C8.66667 16.1446 8.8889 16.1538 9.28205 16.1538C9.67521 16.1538 9.89744 16.1631 9.89744 16.1795C9.89744 16.1955 10.0513 16.2051 10.3077 16.2051C10.5641 16.2051 10.7179 16.2147 10.7179 16.2308C10.7179 16.2463 10.8291 16.2564 11 16.2564C11.1709 16.2564 11.2821 16.2665 11.2821 16.2821C11.2821 16.2967 11.359 16.3077 11.4615 16.3077C11.5641 16.3077 11.641 16.3187 11.641 16.3333C11.641 16.3476 11.7094 16.359 11.7949 16.359C11.8803 16.359 11.9487 16.3704 11.9487 16.3846C11.9487 16.3989 12.0171 16.4103 12.1026 16.4103C12.188 16.4103 12.2564 16.4216 12.2564 16.4359C12.2564 16.45 12.3026 16.4615 12.359 16.4615C12.4154 16.4615 12.4615 16.4731 12.4615 16.4872C12.4615 16.5013 12.4962 16.5128 12.5385 16.5128C12.5808 16.5128 12.6154 16.5244 12.6154 16.5385C12.6154 16.5526 12.6615 16.5641 12.7179 16.5641C12.7744 16.5641 12.8205 16.5756 12.8205 16.5897C12.8205 16.6038 12.8551 16.6154 12.8974 16.6154C12.9397 16.6154 12.9744 16.6269 12.9744 16.641C12.9744 16.6551 13.009 16.6667 13.0513 16.6667C13.0936 16.6667 13.1282 16.6782 13.1282 16.6923C13.1282 16.7064 13.1513 16.7179 13.1795 16.7179C13.2077 16.7179 13.2308 16.7295 13.2308 16.7436C13.2308 16.7577 13.2538 16.7692 13.2821 16.7692C13.3103 16.7692 13.3333 16.7808 13.3333 16.7949C13.3333 16.809 13.3564 16.8205 13.3846 16.8205C13.4128 16.8205 13.4359 16.8321 13.4359 16.8462C13.4359 16.8603 13.459 16.8718 13.4872 16.8718C13.5154 16.8718 13.5385 16.8833 13.5385 16.8974C13.5385 16.9115 13.5615 16.9231 13.5897 16.9231C13.6179 16.9231 13.641 16.9346 13.641 16.9487C13.641 16.9628 13.6616 16.9744 13.6866 16.9744C13.7117 16.9744 13.7489 16.9974 13.7692 17.0256C13.7896 17.0538 13.8242 17.0769 13.8462 17.0769C13.8681 17.0769 13.9027 17.1 13.9231 17.1282C13.9434 17.1564 13.9757 17.1795 13.9948 17.1795C14.014 17.1795 14.074 17.2256 14.1282 17.2821C14.1824 17.3385 14.2394 17.3846 14.2549 17.3846C14.2915 17.3846 14.5641 17.6569 14.5641 17.6934C14.5641 17.7087 14.6218 17.7775 14.6923 17.8462C14.7628 17.9148 14.8205 17.9865 14.8205 18.0055C14.8205 18.0245 14.8436 18.0566 14.8718 18.0769C14.9 18.0973 14.9231 18.1319 14.9231 18.1538C14.9231 18.1758 14.9462 18.2104 14.9744 18.2308C15.0026 18.2511 15.0256 18.2883 15.0256 18.3134C15.0256 18.3384 15.0372 18.359 15.0513 18.359C15.0654 18.359 15.0769 18.3821 15.0769 18.4103C15.0769 18.4385 15.0885 18.4615 15.1026 18.4615C15.1167 18.4615 15.1282 18.4846 15.1282 18.5128C15.1282 18.541 15.1397 18.5641 15.1538 18.5641C15.1679 18.5641 15.1795 18.5872 15.1795 18.6154C15.1795 18.6436 15.191 18.6667 15.2051 18.6667C15.2192 18.6667 15.2308 18.6897 15.2308 18.7179C15.2308 18.7462 15.2423 18.7692 15.2564 18.7692C15.2705 18.7692 15.2821 18.8038 15.2821 18.8462C15.2821 18.8885 15.2936 18.9231 15.3077 18.9231C15.3218 18.9231 15.3333 18.9462 15.3333 18.9744C15.3333 19.0026 15.3449 19.0256 15.359 19.0256C15.3731 19.0256 15.3846 19.0603 15.3846 19.1026C15.3846 19.1449 15.3962 19.1795 15.4103 19.1795C15.4244 19.1795 15.4359 19.2256 15.4359 19.2821C15.4359 19.3385 15.4474 19.3846 15.4615 19.3846C15.4756 19.3846 15.4872 19.4192 15.4872 19.4615C15.4872 19.5038 15.4987 19.5385 15.5128 19.5385C15.5269 19.5385 15.5385 19.5962 15.5385 19.6667C15.5385 19.7372 15.55 19.7949 15.5641 19.7949C15.5782 19.7949 15.5897 19.8526 15.5897 19.9231C15.5897 19.9936 15.6013 20.0513 15.6154 20.0513C15.6296 20.0513 15.641 20.1197 15.641 20.2051C15.641 20.2906 15.6524 20.359 15.6667 20.359C15.6816 20.359 15.6923 20.4444 15.6923 20.5641C15.6923 20.6838 15.703 20.7692 15.7179 20.7692C15.7335 20.7692 15.7436 20.8803 15.7436 21.0513C15.7436 21.2222 15.7537 21.3333 15.7692 21.3333C15.7852 21.3333 15.7949 21.4786 15.7949 21.7179C15.7949 21.9573 15.8046 22.1026 15.8205 22.1026C15.8369 22.1026 15.8462 22.3333 15.8462 22.7436C15.8462 23.1538 15.8554 23.3846 15.8718 23.3846C15.8875 23.3846 15.8974 23.5043 15.8974 23.6923V24H11.9487C9.7679 24 8 22.2321 8 20.0513ZM16.1026 23.6923C16.1026 23.5043 16.1125 23.3846 16.1282 23.3846C16.1446 23.3846 16.1538 23.1538 16.1538 22.7436C16.1538 22.3333 16.1631 22.1026 16.1795 22.1026C16.1954 22.1026 16.2051 21.9573 16.2051 21.7179C16.2051 21.4786 16.2148 21.3333 16.2308 21.3333C16.2463 21.3333 16.2564 21.2222 16.2564 21.0513C16.2564 20.8803 16.2665 20.7692 16.2821 20.7692C16.297 20.7692 16.3077 20.6838 16.3077 20.5641C16.3077 20.4444 16.3184 20.359 16.3333 20.359C16.3476 20.359 16.359 20.2906 16.359 20.2051C16.359 20.1197 16.3704 20.0513 16.3846 20.0513C16.3987 20.0513 16.4103 19.9936 16.4103 19.9231C16.4103 19.8526 16.4218 19.7949 16.4359 19.7949C16.45 19.7949 16.4615 19.7372 16.4615 19.6667C16.4615 19.5962 16.4731 19.5385 16.4872 19.5385C16.5013 19.5385 16.5128 19.5038 16.5128 19.4615C16.5128 19.4192 16.5244 19.3846 16.5385 19.3846C16.5526 19.3846 16.5641 19.3385 16.5641 19.2821C16.5641 19.2256 16.5756 19.1795 16.5897 19.1795C16.6038 19.1795 16.6154 19.1449 16.6154 19.1026C16.6154 19.0603 16.6269 19.0256 16.641 19.0256C16.6551 19.0256 16.6667 19.0026 16.6667 18.9744C16.6667 18.9462 16.6782 18.9231 16.6923 18.9231C16.7064 18.9231 16.7179 18.8885 16.7179 18.8462C16.7179 18.8038 16.7295 18.7692 16.7436 18.7692C16.7577 18.7692 16.7692 18.7462 16.7692 18.7179C16.7692 18.6897 16.7808 18.6667 16.7949 18.6667C16.809 18.6667 16.8205 18.6436 16.8205 18.6154C16.8205 18.5872 16.8321 18.5641 16.8462 18.5641C16.8603 18.5641 16.8718 18.541 16.8718 18.5128C16.8718 18.4846 16.8833 18.4615 16.8974 18.4615C16.9115 18.4615 16.9231 18.4385 16.9231 18.4103C16.9231 18.3821 16.9346 18.359 16.9487 18.359C16.9628 18.359 16.9744 18.3384 16.9744 18.3134C16.9744 18.2883 16.9974 18.2511 17.0256 18.2308C17.0538 18.2104 17.0769 18.1758 17.0769 18.1538C17.0769 18.1319 17.1 18.0973 17.1282 18.0769C17.1564 18.0566 17.1795 18.0245 17.1795 18.0055C17.1795 17.9865 17.2372 17.9148 17.3077 17.8462C17.3782 17.7775 17.4359 17.7087 17.4359 17.6933C17.4359 17.6569 17.6569 17.4359 17.6933 17.4359C17.7087 17.4359 17.7775 17.3782 17.8462 17.3077C17.9148 17.2372 17.9865 17.1795 18.0055 17.1795C18.0245 17.1795 18.0566 17.1564 18.0769 17.1282C18.0973 17.1 18.1319 17.0769 18.1538 17.0769C18.1758 17.0769 18.2104 17.0538 18.2308 17.0256C18.2511 16.9974 18.2883 16.9744 18.3134 16.9744C18.3384 16.9744 18.359 16.9628 18.359 16.9487C18.359 16.9346 18.3821 16.9231 18.4103 16.9231C18.4385 16.9231 18.4615 16.9115 18.4615 16.8974C18.4615 16.8833 18.4846 16.8718 18.5128 16.8718C18.541 16.8718 18.5641 16.8603 18.5641 16.8462C18.5641 16.8321 18.5872 16.8205 18.6154 16.8205C18.6436 16.8205 18.6667 16.809 18.6667 16.7949C18.6667 16.7808 18.6897 16.7692 18.7179 16.7692C18.7462 16.7692 18.7692 16.7577 18.7692 16.7436C18.7692 16.7295 18.7923 16.7179 18.8205 16.7179C18.8487 16.7179 18.8718 16.7064 18.8718 16.6923C18.8718 16.6782 18.9064 16.6667 18.9487 16.6667C18.991 16.6667 19.0256 16.6551 19.0256 16.641C19.0256 16.6269 19.0603 16.6154 19.1026 16.6154C19.1449 16.6154 19.1795 16.6038 19.1795 16.5897C19.1795 16.5756 19.2141 16.5641 19.2564 16.5641C19.2987 16.5641 19.3333 16.5526 19.3333 16.5385C19.3333 16.5244 19.3795 16.5128 19.4359 16.5128C19.4923 16.5128 19.5385 16.5013 19.5385 16.4872C19.5385 16.4731 19.5962 16.4615 19.6667 16.4615C19.7372 16.4615 19.7949 16.45 19.7949 16.4359C19.7949 16.4218 19.8526 16.4103 19.9231 16.4103C19.9936 16.4103 20.0513 16.3987 20.0513 16.3846C20.0513 16.3704 20.1197 16.359 20.2051 16.359C20.2906 16.359 20.359 16.3476 20.359 16.3333C20.359 16.3187 20.4359 16.3077 20.5385 16.3077C20.641 16.3077 20.7179 16.2967 20.7179 16.2821C20.7179 16.2665 20.8291 16.2564 21 16.2564C21.1709 16.2564 21.2821 16.2463 21.2821 16.2308C21.2821 16.2147 21.4359 16.2051 21.6923 16.2051C21.9487 16.2051 22.1026 16.1955 22.1026 16.1795C22.1026 16.1631 22.3248 16.1538 22.7179 16.1538C23.1111 16.1538 23.3333 16.1446 23.3333 16.1282C23.3333 16.1124 23.4615 16.1026 23.6667 16.1026H24V20.0513C24 22.2321 22.2321 24 20.0513 24H16.1026V23.6923ZM8 11.9487C8 9.7679 9.7679 8 11.9487 8H15.8974V8.35897C15.8974 8.58121 15.8877 8.71795 15.8718 8.71795C15.8554 8.71795 15.8462 8.93161 15.8462 9.30769C15.8462 9.68377 15.8369 9.89744 15.8205 9.89744C15.8045 9.89744 15.7949 10.0513 15.7949 10.3077C15.7949 10.5641 15.7853 10.7179 15.7692 10.7179C15.7537 10.7179 15.7436 10.8291 15.7436 11C15.7436 11.1709 15.7335 11.2821 15.7179 11.2821C15.7033 11.2821 15.6923 11.359 15.6923 11.4615C15.6923 11.5641 15.6813 11.641 15.6667 11.641C15.652 11.641 15.641 11.7179 15.641 11.8205C15.641 11.9231 15.63 12 15.6154 12C15.6013 12 15.5897 12.0462 15.5897 12.1026C15.5897 12.159 15.5782 12.2051 15.5641 12.2051C15.55 12.2051 15.5385 12.2628 15.5385 12.3333C15.5385 12.4038 15.5269 12.4615 15.5128 12.4615C15.4987 12.4615 15.4872 12.5077 15.4872 12.5641C15.4872 12.6205 15.4756 12.6667 15.4615 12.6667C15.4474 12.6667 15.4359 12.7013 15.4359 12.7436C15.4359 12.7859 15.4244 12.8205 15.4103 12.8205C15.3962 12.8205 15.3846 12.8551 15.3846 12.8974C15.3846 12.9397 15.3731 12.9744 15.359 12.9744C15.3449 12.9744 15.3333 13.009 15.3333 13.0513C15.3333 13.0936 15.3218 13.1282 15.3077 13.1282C15.2936 13.1282 15.2821 13.1513 15.2821 13.1795C15.2821 13.2077 15.2705 13.2308 15.2564 13.2308C15.2423 13.2308 15.2308 13.2538 15.2308 13.2821C15.2308 13.3103 15.2192 13.3333 15.2051 13.3333C15.191 13.3333 15.1795 13.3564 15.1795 13.3846C15.1795 13.4128 15.1679 13.4359 15.1538 13.4359C15.1397 13.4359 15.1282 13.459 15.1282 13.4872C15.1282 13.5154 15.1167 13.5385 15.1026 13.5385C15.0885 13.5385 15.0769 13.5615 15.0769 13.5897C15.0769 13.6179 15.0654 13.641 15.0513 13.641C15.0372 13.641 15.0256 13.6616 15.0256 13.6866C15.0256 13.7117 15.0026 13.7489 14.9744 13.7692C14.9462 13.7896 14.9231 13.8242 14.9231 13.8462C14.9231 13.8681 14.9 13.9027 14.8718 13.9231C14.8436 13.9434 14.8205 13.9755 14.8205 13.9945C14.8205 14.0135 14.7628 14.0852 14.6923 14.1538C14.6218 14.2225 14.5641 14.2914 14.5641 14.3069C14.5641 14.3495 14.3919 14.5128 14.347 14.5128C14.3248 14.5128 14.3077 14.5351 14.3077 14.5641C14.3077 14.5937 14.2906 14.6154 14.2672 14.6154C14.2449 14.6154 14.1824 14.6615 14.1282 14.7179C14.074 14.7744 14.014 14.8205 13.9948 14.8205C13.9757 14.8205 13.9434 14.8436 13.9231 14.8718C13.9027 14.9 13.8681 14.9231 13.8462 14.9231C13.8242 14.9231 13.7896 14.9462 13.7692 14.9744C13.7489 15.0026 13.7117 15.0256 13.6866 15.0256C13.6616 15.0256 13.641 15.0372 13.641 15.0513C13.641 15.0654 13.6179 15.0769 13.5897 15.0769C13.5615 15.0769 13.5385 15.0885 13.5385 15.1026C13.5385 15.1167 13.5154 15.1282 13.4872 15.1282C13.459 15.1282 13.4359 15.1397 13.4359 15.1538C13.4359 15.1679 13.4128 15.1795 13.3846 15.1795C13.3564 15.1795 13.3333 15.191 13.3333 15.2051C13.3333 15.2192 13.3103 15.2308 13.2821 15.2308C13.2538 15.2308 13.2308 15.2423 13.2308 15.2564C13.2308 15.2705 13.1962 15.2821 13.1538 15.2821C13.1115 15.2821 13.0769 15.2936 13.0769 15.3077C13.0769 15.3218 13.0538 15.3333 13.0256 15.3333C12.9974 15.3333 12.9744 15.3449 12.9744 15.359C12.9744 15.3731 12.9397 15.3846 12.8974 15.3846C12.8551 15.3846 12.8205 15.3962 12.8205 15.4103C12.8205 15.4244 12.7859 15.4359 12.7436 15.4359C12.7013 15.4359 12.6667 15.4474 12.6667 15.4615C12.6667 15.4756 12.6205 15.4872 12.5641 15.4872C12.5077 15.4872 12.4615 15.4987 12.4615 15.5128C12.4615 15.5269 12.4038 15.5385 12.3333 15.5385C12.2628 15.5385 12.2051 15.55 12.2051 15.5641C12.2051 15.5782 12.1474 15.5897 12.0769 15.5897C12.0064 15.5897 11.9487 15.6013 11.9487 15.6154C11.9487 15.6296 11.8803 15.641 11.7949 15.641C11.7094 15.641 11.641 15.6524 11.641 15.6667C11.641 15.6813 11.5641 15.6923 11.4615 15.6923C11.359 15.6923 11.2821 15.7033 11.2821 15.7179C11.2821 15.7335 11.1709 15.7436 11 15.7436C10.8291 15.7436 10.7179 15.7537 10.7179 15.7692C10.7179 15.7852 10.5726 15.7949 10.3333 15.7949C10.094 15.7949 9.94872 15.8046 9.94872 15.8205C9.94872 15.8369 9.72721 15.8462 9.33546 15.8462C8.8689 15.8462 8.7191 15.8538 8.70921 15.8782C8.69941 15.9024 8.68897 15.9008 8.66667 15.8718C8.64436 15.8427 8.63392 15.8412 8.62413 15.8654C8.61474 15.8885 8.52597 15.8974 8.30556 15.8974H8V11.9487ZM23.3846 15.8718C23.3846 15.8554 23.1538 15.8462 22.7436 15.8462C22.3333 15.8462 22.1026 15.8369 22.1026 15.8205C22.1026 15.8045 21.9487 15.7949 21.6923 15.7949C21.4359 15.7949 21.2821 15.7853 21.2821 15.7692C21.2821 15.7537 21.1709 15.7436 21 15.7436C20.8291 15.7436 20.7179 15.7335 20.7179 15.7179C20.7179 15.7033 20.641 15.6923 20.5385 15.6923C20.4359 15.6923 20.359 15.6813 20.359 15.6667C20.359 15.6524 20.2906 15.641 20.2051 15.641C20.1197 15.641 20.0513 15.6296 20.0513 15.6154C20.0513 15.6013 19.9936 15.5897 19.9231 15.5897C19.8526 15.5897 19.7949 15.5782 19.7949 15.5641C19.7949 15.55 19.7372 15.5385 19.6667 15.5385C19.5962 15.5385 19.5385 15.5269 19.5385 15.5128C19.5385 15.4987 19.4923 15.4872 19.4359 15.4872C19.3795 15.4872 19.3333 15.4756 19.3333 15.4615C19.3333 15.4474 19.2987 15.4359 19.2564 15.4359C19.2141 15.4359 19.1795 15.4244 19.1795 15.4103C19.1795 15.3962 19.1449 15.3846 19.1026 15.3846C19.0603 15.3846 19.0256 15.3731 19.0256 15.359C19.0256 15.3449 18.991 15.3333 18.9487 15.3333C18.9064 15.3333 18.8718 15.3218 18.8718 15.3077C18.8718 15.2936 18.8487 15.2821 18.8205 15.2821C18.7923 15.2821 18.7692 15.2705 18.7692 15.2564C18.7692 15.2423 18.7462 15.2308 18.7179 15.2308C18.6897 15.2308 18.6667 15.2192 18.6667 15.2051C18.6667 15.191 18.6436 15.1795 18.6154 15.1795C18.5872 15.1795 18.5641 15.1679 18.5641 15.1538C18.5641 15.1397 18.541 15.1282 18.5128 15.1282C18.4846 15.1282 18.4615 15.1167 18.4615 15.1026C18.4615 15.0885 18.4385 15.0769 18.4103 15.0769C18.3821 15.0769 18.359 15.0654 18.359 15.0513C18.359 15.0372 18.3384 15.0256 18.3134 15.0256C18.2883 15.0256 18.2511 15.0026 18.2308 14.9744C18.2104 14.9462 18.1758 14.9231 18.1538 14.9231C18.1319 14.9231 18.0973 14.9 18.0769 14.8718C18.0566 14.8436 18.0245 14.8205 18.0055 14.8205C17.9865 14.8205 17.9148 14.7628 17.8462 14.6923C17.7775 14.6218 17.7087 14.5641 17.6933 14.5641C17.6569 14.5641 17.4359 14.3431 17.4359 14.3067C17.4359 14.2913 17.3782 14.2225 17.3077 14.1538C17.2372 14.0852 17.1795 14.0135 17.1795 13.9945C17.1795 13.9755 17.1564 13.9434 17.1282 13.9231C17.1 13.9027 17.0769 13.8681 17.0769 13.8462C17.0769 13.8242 17.0538 13.7896 17.0256 13.7692C16.9974 13.7489 16.9744 13.7117 16.9744 13.6866C16.9744 13.6616 16.9628 13.641 16.9487 13.641C16.9346 13.641 16.9231 13.6179 16.9231 13.5897C16.9231 13.5615 16.9115 13.5385 16.8974 13.5385C16.8833 13.5385 16.8718 13.5154 16.8718 13.4872C16.8718 13.459 16.8603 13.4359 16.8462 13.4359C16.8321 13.4359 16.8205 13.4128 16.8205 13.3846C16.8205 13.3564 16.809 13.3333 16.7949 13.3333C16.7808 13.3333 16.7692 13.3103 16.7692 13.2821C16.7692 13.2538 16.7577 13.2308 16.7436 13.2308C16.7295 13.2308 16.7179 13.2077 16.7179 13.1795C16.7179 13.1513 16.7064 13.1282 16.6923 13.1282C16.6782 13.1282 16.6667 13.0936 16.6667 13.0513C16.6667 13.009 16.6551 12.9744 16.641 12.9744C16.6269 12.9744 16.6154 12.9397 16.6154 12.8974C16.6154 12.8551 16.6038 12.8205 16.5897 12.8205C16.5756 12.8205 16.5641 12.7859 16.5641 12.7436C16.5641 12.7013 16.5526 12.6667 16.5385 12.6667C16.5244 12.6667 16.5128 12.6205 16.5128 12.5641C16.5128 12.5077 16.5013 12.4615 16.4872 12.4615C16.4731 12.4615 16.4615 12.4038 16.4615 12.3333C16.4615 12.2628 16.45 12.2051 16.4359 12.2051C16.4218 12.2051 16.4103 12.1474 16.4103 12.0769C16.4103 12.0064 16.3987 11.9487 16.3846 11.9487C16.3704 11.9487 16.359 11.8803 16.359 11.7949C16.359 11.7094 16.3476 11.641 16.3333 11.641C16.3187 11.641 16.3077 11.5641 16.3077 11.4615C16.3077 11.359 16.2967 11.2821 16.2821 11.2821C16.2665 11.2821 16.2564 11.1709 16.2564 11C16.2564 10.8291 16.2463 10.7179 16.2308 10.7179C16.2148 10.7179 16.2051 10.5726 16.2051 10.3333C16.2051 10.094 16.1954 9.94872 16.1795 9.94872C16.1631 9.94872 16.1538 9.71795 16.1538 9.30769C16.1538 8.89744 16.1446 8.66667 16.1282 8.66667C16.1124 8.66667 16.1026 8.53846 16.1026 8.33333V8H20.0513C22.2321 8 24 9.7679 24 11.9487V15.8974H23.6923C23.5043 15.8974 23.3846 15.8875 23.3846 15.8718Z" fill="#333333"/>
</svg>
