<svg width="32" height="32" viewBox="0 0 32 32" fill="none" xmlns="http://www.w3.org/2000/svg">
<path d="M0.5 16C0.5 7.43959 7.43959 0.5 16 0.5C24.5604 0.5 31.5 7.43959 31.5 16C31.5 24.5604 24.5604 31.5 16 31.5C7.43959 31.5 0.5 24.5604 0.5 16Z" stroke="#333333"/>
<path fill-rule="evenodd" clip-rule="evenodd" d="M16.1369 21.7507C16.1369 21.7507 16.4449 21.7171 16.6027 21.5507C16.7471 21.3983 16.7421 21.1107 16.7421 21.1107C16.7421 21.1107 16.7229 19.7678 17.3581 19.5695C17.9842 19.3745 18.788 20.8682 19.6411 21.4426C20.2855 21.8768 20.7747 21.7818 20.7747 21.7818L23.0543 21.7507C23.0543 21.7507 24.2463 21.6786 23.6812 20.7584C23.6345 20.683 23.3515 20.0775 21.9867 18.8337C20.5568 17.5317 20.7488 17.7423 22.47 15.4899C23.5184 14.1182 23.9375 13.2808 23.8064 12.9228C23.682 12.5803 22.9108 12.6712 22.9108 12.6712L20.3448 12.6868C20.3448 12.6868 20.1545 12.6614 20.0134 12.7442C19.8757 12.8253 19.7864 13.0145 19.7864 13.0145C19.7864 13.0145 19.3807 14.0756 18.8389 14.9786C17.6962 16.8828 17.2396 16.9836 17.0526 16.8656C16.6177 16.5895 16.7262 15.7578 16.7262 15.167C16.7262 13.321 17.0117 12.5516 16.1711 12.3525C15.8923 12.2861 15.687 12.2427 14.9733 12.2353C14.0576 12.2263 13.283 12.2386 12.8439 12.4492C12.5517 12.5893 12.3264 12.9023 12.4641 12.9203C12.6335 12.9424 13.0175 13.0219 13.2212 13.294C13.4841 13.6455 13.475 14.4337 13.475 14.4337C13.475 14.4337 13.626 16.6067 13.1219 16.8762C12.7763 17.0614 12.3022 16.6837 11.2829 14.9556C10.7612 14.0707 10.3672 13.0924 10.3672 13.0924C10.3672 13.0924 10.2913 12.9097 10.1552 12.8113C9.99078 12.6925 9.76123 12.6557 9.76123 12.6557L7.32298 12.6712C7.32298 12.6712 6.95653 12.6811 6.82214 12.8376C6.70278 12.976 6.81296 13.2636 6.81296 13.2636C6.81296 13.2636 8.72199 17.6481 10.8839 19.8579C12.8664 21.8834 15.1169 21.7507 15.1169 21.7507H16.1369Z" fill="#333333"/>
</svg>
