<svg width="32" height="32" viewBox="0 0 32 32" fill="none" xmlns="http://www.w3.org/2000/svg">
<path d="M0.5 16C0.5 7.43959 7.43959 0.5 16 0.5C24.5604 0.5 31.5 7.43959 31.5 16C31.5 24.5604 24.5604 31.5 16 31.5C7.43959 31.5 0.5 24.5604 0.5 16Z" stroke="#333333"/>
<path fill-rule="evenodd" clip-rule="evenodd" d="M16 8C13.8273 8 13.5549 8.00921 12.7016 8.04814C11.8501 8.08698 11.2686 8.22223 10.7597 8.42001C10.2336 8.62442 9.78748 8.89797 9.34271 9.34271C8.89797 9.78748 8.62442 10.2336 8.42001 10.7597C8.22223 11.2686 8.08698 11.8501 8.04814 12.7016C8.00921 13.5549 8 13.8273 8 16C8 18.1727 8.00921 18.4451 8.04814 19.2984C8.08698 20.1499 8.22223 20.7314 8.42001 21.2403C8.62442 21.7664 8.89797 22.2125 9.34271 22.6573C9.78748 23.102 10.2336 23.3756 10.7597 23.58C11.2686 23.7778 11.8501 23.913 12.7016 23.9519C13.5549 23.9908 13.8273 24 16 24C18.1727 24 18.4451 23.9908 19.2984 23.9519C20.1499 23.913 20.7314 23.7778 21.2403 23.58C21.7664 23.3756 22.2125 23.102 22.6573 22.6573C23.102 22.2125 23.3756 21.7664 23.58 21.2403C23.7778 20.7314 23.913 20.1499 23.9519 19.2984C23.9908 18.4451 24 18.1727 24 16C24 13.8273 23.9908 13.5549 23.9519 12.7016C23.913 11.8501 23.7778 11.2686 23.58 10.7597C23.3756 10.2336 23.102 9.78748 22.6573 9.34271C22.2125 8.89797 21.7664 8.62442 21.2403 8.42001C20.7314 8.22223 20.1499 8.08698 19.2984 8.04814C18.4451 8.00921 18.1727 8 16 8ZM16 9.44149C18.1361 9.44149 18.3891 9.44965 19.2327 9.48814C20.0127 9.5237 20.4363 9.65403 20.7182 9.76359C21.0916 9.90871 21.3581 10.0821 21.638 10.362C21.918 10.642 22.0913 10.9085 22.2365 11.2819C22.346 11.5638 22.4764 11.9874 22.5119 12.7674C22.5504 13.6109 22.5586 13.864 22.5586 16.0001C22.5586 18.1361 22.5504 18.3892 22.5119 19.2327C22.4764 20.0127 22.346 20.4363 22.2365 20.7182C22.0913 21.0916 21.918 21.3581 21.638 21.6381C21.3581 21.918 21.0916 22.0914 20.7182 22.2365C20.4363 22.3461 20.0127 22.4764 19.2327 22.512C18.3893 22.5504 18.1363 22.5586 16 22.5586C13.8638 22.5586 13.6108 22.5504 12.7673 22.512C11.9873 22.4764 11.5637 22.3461 11.2818 22.2365C10.9084 22.0914 10.6419 21.918 10.362 21.6381C10.0821 21.3581 9.90868 21.0916 9.76355 20.7182C9.65399 20.4363 9.52367 20.0127 9.4881 19.2327C9.44961 18.3892 9.44145 18.1361 9.44145 16.0001C9.44145 13.864 9.44961 13.6109 9.4881 12.7674C9.52367 11.9874 9.65399 11.5638 9.76355 11.2819C9.90868 10.9085 10.082 10.642 10.362 10.362C10.6419 10.0821 10.9084 9.90871 11.2818 9.76359C11.5637 9.65403 11.9873 9.5237 12.7673 9.48814C13.6109 9.44965 13.8639 9.44149 16 9.44149ZM11.8919 16C11.8919 13.7312 13.7311 11.8919 16 11.8919C18.2689 11.8919 20.1081 13.7312 20.1081 16C20.1081 18.2689 18.2689 20.1081 16 20.1081C13.7311 20.1081 11.8919 18.2689 11.8919 16ZM16 18.6667C14.5272 18.6667 13.3333 17.4728 13.3333 16C13.3333 14.5272 14.5272 13.3333 16 13.3333C17.4728 13.3333 18.6667 14.5272 18.6667 16C18.6667 17.4728 17.4728 18.6667 16 18.6667ZM20.2704 12.6896C20.8006 12.6896 21.2304 12.2598 21.2304 11.7296C21.2304 11.1994 20.8006 10.7696 20.2704 10.7696C19.7402 10.7696 19.3104 11.1994 19.3104 11.7296C19.3104 12.2598 19.7402 12.6896 20.2704 12.6896Z" fill="#333333"/>
</svg>
