<svg width="32" height="32" viewBox="0 0 32 32" fill="none" xmlns="http://www.w3.org/2000/svg">
<path d="M0.5 16C0.5 7.43959 7.43959 0.5 16 0.5C24.5604 0.5 31.5 7.43959 31.5 16C31.5 24.5604 24.5604 31.5 16 31.5C7.43959 31.5 0.5 24.5604 0.5 16Z" stroke="#333333"/>
<path fill-rule="evenodd" clip-rule="evenodd" d="M21.5915 23.8124C22.8628 23.8124 23.8935 22.7818 23.8935 21.5105V10.3836C23.8935 9.11231 22.8628 8.08167 21.5915 8.08167H10.384C9.11268 8.08167 8.08203 9.11227 8.08203 10.3836V21.5105C8.08203 22.7818 9.11264 23.8124 10.384 23.8124H21.5915ZM13.112 13.2423C13.112 11.659 14.3955 10.3755 15.9788 10.3755C17.5621 10.3755 18.8456 11.659 18.8456 13.2423C18.8456 14.8256 17.5621 16.1092 15.9788 16.1092C14.3955 16.1092 13.112 14.8256 13.112 13.2423ZM14.7938 13.2423C14.7938 13.8968 15.3243 14.4274 15.9788 14.4274C16.6333 14.4274 17.1639 13.8968 17.1639 13.2423C17.1639 12.5878 16.6333 12.0573 15.9788 12.0573C15.3243 12.0573 14.7938 12.5878 14.7938 13.2423ZM16.9909 18.3903C18.1386 18.1565 18.8264 17.613 18.8628 17.5839C19.1986 17.3145 19.2526 16.8239 18.9832 16.4881C18.7139 16.1522 18.2234 16.0983 17.8875 16.3676C17.8804 16.3733 17.1468 16.936 15.9399 16.9368C14.733 16.936 13.984 16.3733 13.9769 16.3676C13.6409 16.0983 13.1504 16.1522 12.8811 16.4881C12.6118 16.8239 12.6657 17.3145 13.0016 17.5839C13.0384 17.6134 13.7546 18.1711 14.9344 18.3994L13.2901 20.1179C12.9913 20.4278 13.0003 20.9212 13.3102 21.2201C13.4614 21.3659 13.6564 21.4384 13.8512 21.4384C14.0554 21.4384 14.2594 21.3586 14.4124 21.2L15.9399 19.5727L17.6218 21.2105C17.9266 21.5148 18.42 21.5143 18.7242 21.2097C19.0284 20.905 19.028 20.4115 18.7233 20.1073L16.9909 18.3903Z" fill="#333333"/>
</svg>
