<svg width="32" height="32" viewBox="0 0 32 32" fill="none" xmlns="http://www.w3.org/2000/svg">
<path d="M0.5 16C0.5 7.43959 7.43959 0.5 16 0.5C24.5604 0.5 31.5 7.43959 31.5 16C31.5 24.5604 24.5604 31.5 16 31.5C7.43959 31.5 0.5 24.5604 0.5 16Z" stroke="#333333"/>
<path fill-rule="evenodd" clip-rule="evenodd" d="M14.1827 18.2841L14.1822 13.2621L18.9375 15.7818L14.1827 18.2841ZM24.624 12.3918C24.624 12.3918 24.4518 11.1602 23.9244 10.6179C23.255 9.90571 22.5048 9.90236 22.1611 9.86103C19.6982 9.68005 16.0038 9.68005 16.0038 9.68005H15.9961C15.9961 9.68005 12.3018 9.68005 9.83885 9.86103C9.49455 9.90236 8.7449 9.90571 8.075 10.6179C7.54755 11.1602 7.37595 12.3918 7.37595 12.3918C7.37595 12.3918 7.19995 13.8385 7.19995 15.2846V16.6408C7.19995 18.0874 7.37595 19.5335 7.37595 19.5335C7.37595 19.5335 7.54755 20.7652 8.075 21.3075C8.7449 22.0197 9.62435 21.9973 10.016 22.0716C11.424 22.209 16 22.2515 16 22.2515C16 22.2515 19.6982 22.2459 22.1611 22.0649C22.5048 22.023 23.255 22.0197 23.9244 21.3075C24.4518 20.7652 24.624 19.5335 24.624 19.5335C24.624 19.5335 24.8 18.0874 24.8 16.6408V15.2846C24.8 13.8385 24.624 12.3918 24.624 12.3918Z" fill="#333333"/>
</svg>
