<svg width="104" height="31" viewBox="0 0 104 31" fill="none" xmlns="http://www.w3.org/2000/svg">
<path d="M26.5438 14.568H32.2448V20.0508L35.3712 14.568H41.6853L36.8425 21.7479L41.8079 29.711H35.2486L32.2448 23.9671V29.711H26.5438V14.568Z" fill="#7F7F7F"/>
<path d="M25.1338 29.2542C24.2142 29.7764 22.9882 30.168 21.3331 30.168C16.6741 30.168 13.3638 26.9697 13.3638 22.1396C13.3638 16.6568 17.5937 14.1112 21.2105 14.1112C22.3752 14.1112 23.969 14.4376 25.1338 15.2861V20.5731C24.2755 19.3982 22.9882 18.9413 22.0074 18.9413C19.8618 18.9413 18.881 20.4425 18.881 22.2702C18.881 24.2283 20.2296 25.3379 22.0074 25.3379C23.2947 25.3379 24.3981 24.7505 25.1951 23.9672C25.1338 23.9672 25.1338 29.2542 25.1338 29.2542Z" fill="#7F7F7F"/>
<path d="M5.70106 20.2467V18.0927H6.25278C7.23361 18.0927 7.54012 18.6149 7.54012 19.1371C7.54012 19.6593 7.29491 20.1814 6.25278 20.1814L5.70106 20.2467ZM0 14.5028V29.7111H8.45964C12.383 29.7111 13.2412 27.0349 13.2412 25.4684C13.2412 23.3797 11.8925 21.9438 10.0535 21.6174V21.5521C11.2182 21.1605 12.5669 20.1162 12.5669 18.3538C12.5669 17.1789 12.1377 14.5028 8.03053 14.5028C8.03053 14.5028 0 14.5028 0 14.5028ZM5.70106 25.9906V23.7061H6.37538C6.9271 23.7061 7.78532 23.8366 7.78532 24.8157C7.78532 25.8601 6.8658 25.9906 6.37538 25.9906H5.70106Z" fill="#7F7F7F"/>
<path d="M75.1558 16.5263L73.5007 16.5916L73.3781 16.1347L71.7842 16.0694V15.743H70.1291L70.3743 16.3305L71.1099 16.461L71.0486 16.1999L71.7229 16.7221L72.8264 16.9832H73.562L75.4623 16.7221L75.1558 16.5263Z" fill="#B1B1B1"/>
<path d="M70.9876 15.025L70.1907 14.8945C70.1907 14.8945 70.1907 14.6334 69.8842 14.4376C69.5777 14.307 69.639 14.4376 69.639 14.4376L69.3325 14.2417L68.7807 14.1765L68.7194 13.7848L68.0451 13.7196V13.5238L67.4934 13.4585L67.2482 13.2627L67.3095 13.0016L67.1869 12.8058L66.5126 12.4794L65.9609 12.2836L65.5931 11.8267L65.1639 11.4351L64.6122 10.8476L63.2023 10.3254L61.915 9.34637L61.3632 9.08528L60.8115 8.8242L59.6468 8.17148L57.869 7.12713L54.007 5.16899L52.9036 4.64681C52.2906 4.38573 52.168 4.18991 52.168 4.12464C51.6163 3.9941 51.4324 3.86355 51.1258 3.60247C50.8193 3.60247 50.145 3.21084 49.9611 3.01502C49.9611 3.01502 48.7964 2.68867 48.7351 2.55812C48.7351 2.49285 45.7926 1.38323 45.4248 1.31796C45.1796 1.31796 44.4439 1.18742 44.3213 1.12215C44.1987 1.12215 43.7696 0.991605 43.5857 0.926334C42.9727 0.861062 42.3597 0.730519 41.7467 0.730519C41.3176 0.730519 41.0111 0.730519 40.6432 0.599976C40.5206 0.665247 39.6011 0.534704 39.2333 0.79579C38.8655 0.79579 38.0073 0.991605 37.7621 1.12215C37.2716 1.12215 36.4134 1.70959 36.1069 1.84014C35.9843 1.90541 35.8004 1.97068 35.6778 2.03595C36.5973 2.36231 37.6395 2.75394 37.6395 2.81921C37.7008 2.88448 38.8655 3.21084 38.8655 3.27611C39.172 3.5372 39.8463 3.92883 40.1528 3.92883C40.4593 4.25518 40.6432 4.32046 41.195 4.451C41.195 4.51627 41.3176 4.71209 41.9306 4.97317L43.034 5.49534L46.896 7.45349L48.6738 8.49784L49.8385 9.15055L50.3902 9.41164L50.9419 9.67273L51.371 9.99908L52.2293 10.3254L54.1296 10.9782L56.4591 11.892L57.3173 12.2183L58.1755 12.4794L58.6047 12.4141L59.0338 12.5447L59.5242 13.0016L60.0146 12.8058L60.3824 12.871L60.6276 13.2627L60.8115 13.4585L61.2406 13.589L61.6697 13.6543L62.1602 13.5238L62.7732 13.589L62.9571 13.9807L63.8153 14.1112L64.4283 14.1765L65.0413 14.2417L65.5318 14.4376L65.9609 14.8945L66.5739 15.025L68.1677 15.2861L69.5777 15.0903L70.4972 15.1555L70.9876 15.025Z" fill="#B1B1B1"/>
<path d="M58.1753 17.4401H59.8918V17.7664L61.4243 17.897L61.6082 18.2886L63.2021 18.2233L63.5699 18.4844L61.6695 18.7455L60.9339 18.6802L59.8305 18.4191L59.1562 17.9622L59.2175 18.1581L58.4818 18.0928L58.1753 17.4401Z" fill="#7F7F7F"/>
<path d="M58.3592 16.722C58.3592 16.722 58.3592 16.461 58.0527 16.2651C57.7461 16.1346 57.8074 16.2651 57.8074 16.2651L57.5009 16.0693L57.0105 15.9388V15.5472L56.3362 15.4819V15.2861L55.7845 15.2208L55.5393 15.025L55.6006 14.7639L55.478 14.5681L54.8037 14.2417L54.2519 14.0459L53.8841 13.589L53.455 13.1974L52.9033 12.6099L51.4934 12.0878L50.206 11.1087L49.6543 10.8476L49.1026 10.5865L47.9379 9.93381L46.1601 8.88946L42.2981 6.93131L41.1947 6.40914C40.5816 6.14806 40.459 5.95224 40.459 5.88697C39.9073 5.75643 39.7234 5.62588 39.4169 5.3648C39.1104 5.3648 38.4361 4.97317 38.2522 4.77735C38.2522 4.77735 37.0874 4.45099 37.0261 4.32045C37.0261 4.25518 34.0837 3.14556 33.7158 3.08029C33.4706 3.08029 32.735 2.94975 32.6124 2.88448C32.4898 2.88448 32.0607 2.75393 31.8768 2.68866C31.2638 2.62339 30.6507 2.49285 30.0377 2.49285C29.6086 2.49285 29.3021 2.49285 28.9343 2.3623C28.8117 2.42758 27.8922 2.29703 27.5244 2.55812C27.1565 2.55812 26.2983 2.75393 26.0531 2.88448C25.5627 2.88448 24.7045 3.47192 24.398 3.60246C24.1528 3.73301 23.8463 3.86355 23.601 3.99409C23.4784 4.05937 21.8846 4.9079 21.762 5.03844C21.762 5.10371 20.1681 6.08278 20.0455 6.21333C19.9842 6.2786 19.5551 6.47441 19.4325 6.60496C19.3099 6.7355 18.8808 7.12713 18.7582 7.1924C18.6969 7.32294 18.2678 7.51876 18.2065 7.6493C18.0839 7.77985 17.5935 8.04093 17.5322 8.1062C17.5322 8.1062 17.2257 8.36729 17.0418 8.5631C16.9804 8.69365 16.8578 8.82419 16.7965 8.95473C16.6739 9.02 16.2448 9.28109 16.1222 9.34636C16.1222 9.60745 16.1222 10.0644 15.7544 9.93381C15.7544 9.93381 15.264 10.2602 15.264 10.1949C15.3253 10.1949 15.0188 10.6518 14.7736 10.9782C14.651 11.174 13.9154 11.4351 13.7928 11.6309C13.4862 12.0225 13.1797 12.4141 12.8732 12.8058C12.8732 12.8058 12.8732 12.8058 12.9345 12.8058C12.9345 12.871 13.1797 12.871 13.241 12.9363C13.3023 13.0668 13.1184 13.1974 13.1184 13.3932C13.1184 13.3932 13.1184 13.3932 13.1797 13.3932C13.3636 13.3932 13.6089 13.1321 13.7928 13.0668C13.9154 13.0016 14.0993 12.9363 14.2219 12.871C14.4671 12.7405 14.7123 12.5447 15.0188 12.4141C16.9191 11.3045 18.8808 10.2602 20.7812 9.15055C21.7007 8.62838 22.4363 8.17147 23.4784 7.58403C23.7236 7.45349 24.6432 6.80077 25.3175 6.7355C26.1757 6.67023 27.2792 6.93131 27.5244 7.06186C27.7696 7.1924 28.4439 7.51876 28.8117 7.58403C28.9343 7.6493 29.1182 7.77984 29.1795 7.77984C29.2408 7.84512 29.8538 7.91039 30.1603 8.04093C30.2829 8.1062 30.4055 8.17147 30.5281 8.23675C31.0799 8.43256 32.4285 8.75892 32.9189 8.88946C33.348 9.02 33.5932 9.28109 33.7771 9.34636C34.0836 9.54218 34.145 9.47691 34.4515 9.60745C35.0032 9.67272 35.3097 9.86854 35.3097 9.86854C35.4936 9.93381 35.5549 9.99908 35.7388 10.0643C35.8614 10.0643 36.1679 10.3254 36.2292 10.3254C36.3518 10.3254 37.21 10.6518 37.3326 10.6518C37.4552 10.6518 38.0683 10.9129 38.1909 10.9782C38.3748 11.0434 38.5587 11.1087 38.7426 11.174L40.5203 11.892L42.4207 12.5447L44.7502 13.4585L45.6084 13.7848L46.4666 14.0459L46.8957 13.9806L47.3248 14.1112L47.8153 14.5681L48.3057 14.3723L48.6735 14.4375L48.9187 14.8292L49.1026 15.025L49.5317 15.1555L49.9608 15.2208L50.4512 15.0903L51.0642 15.1555L51.2481 15.5472L52.1064 15.6777L52.7194 15.743L53.3324 15.8082L53.8228 16.0041L54.2519 16.461L54.865 16.5915L56.4588 16.8526L57.8687 16.6568L58.7883 16.722L59.0948 16.461L58.3592 16.722Z" fill="#7F7F7F"/>
<path d="M46.5893 29.1236C46.3441 29.2542 45.9763 29.3847 45.4859 29.3847C44.6889 29.3847 44.1985 29.1236 43.8307 28.732C43.279 28.2098 43.0951 27.6224 43.0951 26.9044C43.0951 26.0559 43.4629 25.4031 43.8307 25.0768C44.2598 24.6199 44.8728 24.4241 45.4859 24.4241C45.7924 24.4241 46.2215 24.4893 46.5893 24.6852V25.7948C46.1602 25.2726 45.6698 25.2726 45.4859 25.2726C44.5663 25.2726 43.9533 26.0559 43.9533 26.9044C43.9533 27.9487 44.7502 28.5362 45.4859 28.5362C45.915 28.5362 46.2828 28.3404 46.528 28.014C46.5893 28.0793 46.5893 29.1236 46.5893 29.1236Z" fill="#7F7F7F"/>
<path d="M49.1641 29.3194H48.2445V25.4031H47.2024V24.6199H50.1449V25.4031H49.1028L49.1641 29.3194Z" fill="#7F7F7F"/>
<path d="M51.9839 25.3378H52.2904C52.4743 25.3378 52.7195 25.3378 52.9034 25.4684C53.026 25.5989 53.1486 25.7295 53.1486 25.9905C53.1486 26.1864 53.0874 26.3822 52.9034 26.5127C52.7195 26.7738 52.5356 26.7738 52.3517 26.7738H51.9839V25.3378ZM51.0644 24.5546V29.3194H51.9839V27.5571H52.5356C53.0873 27.5571 53.4552 27.4265 53.7004 27.1654C54.0682 26.7738 54.0682 26.3169 54.0682 26.1211C54.0682 25.7947 53.9456 25.3378 53.5778 24.9462C53.2713 24.6198 52.9034 24.5546 52.3517 24.5546H51.0644Z" fill="#7F7F7F"/>
<path d="M55.9685 27.5571L56.6428 25.8601L57.2558 27.5571H55.9685ZM57.9301 29.3195H58.8496L56.9493 24.4894H56.275L54.3133 29.3195H55.2941L55.7233 28.3404H57.5623L57.9301 29.3195Z" fill="#7F7F7F"/>
<path d="M60.8725 26.8391L59.5239 24.6199H60.566L61.3629 26.0558L62.2211 24.6199H63.2633L61.8533 26.8391L63.3859 29.3194H62.3438L61.3629 27.5571L60.3208 29.3194H59.2787L60.8725 26.8391Z" fill="#7F7F7F"/>
<path d="M66.6964 28.6015C65.7769 28.6015 65.1639 27.9488 65.1639 26.9697C65.1639 25.9906 65.7769 25.3379 66.6964 25.3379C67.6159 25.3379 68.2289 25.9906 68.2289 26.9697C68.2289 27.8835 67.5546 28.6015 66.6964 28.6015ZM66.6964 24.4894C65.2865 24.4894 64.2443 25.5337 64.2443 26.9697C64.2443 28.4057 65.2252 29.45 66.6964 29.45C68.1063 29.45 69.1485 28.4057 69.1485 26.9697C69.1485 25.5337 68.1063 24.4894 66.6964 24.4894Z" fill="#7F7F7F"/>
<path d="M71.1712 25.3379H71.4164C71.7842 25.3379 72.0907 25.4685 72.0907 25.9254C72.0907 26.5128 71.539 26.5128 71.4164 26.5128H71.1712V25.3379ZM70.313 24.5547V29.3195H71.8455C72.2133 29.3195 72.6424 29.2542 73.0103 28.9278C73.3168 28.6668 73.3781 28.2751 73.3781 27.9488C73.3781 27.6877 73.3168 27.3613 73.0716 27.035C72.9489 26.9044 72.765 26.7739 72.4585 26.7086C72.5811 26.6433 72.949 26.3823 72.949 25.7948C72.949 25.4032 72.765 25.0116 72.5198 24.8157C72.152 24.4894 71.6616 24.4894 71.4164 24.4894L70.313 24.5547ZM71.1712 27.2308H71.4777C71.6616 27.2308 71.9068 27.2308 72.0907 27.2961C72.3972 27.4266 72.3972 27.6877 72.3972 27.8182C72.3972 28.014 72.3359 28.2099 72.0907 28.3404C71.9068 28.4709 71.6616 28.4709 71.4777 28.4709H71.1099V27.2308H71.1712Z" fill="#7F7F7F"/>
<path d="M76.7499 28.6015C75.8304 28.6015 75.2173 27.9488 75.2173 26.9697C75.2173 25.9906 75.8304 25.3379 76.7499 25.3379C77.6081 25.3379 78.2824 25.9906 78.2824 26.9697C78.2824 27.8835 77.6694 28.6015 76.7499 28.6015ZM76.7499 24.4894C75.34 24.4894 74.2978 25.5337 74.2978 26.9697C74.2978 28.4057 75.2786 29.45 76.7499 29.45C78.1598 29.45 79.202 28.4057 79.202 26.9697C79.202 25.5337 78.1598 24.4894 76.7499 24.4894Z" fill="#7F7F7F"/>
<path d="M81.2249 24.5546V27.7529L83.7383 24.4893H84.3513V29.3194H83.4318V26.1211L80.9184 29.3847H80.3054V24.5546C80.3667 24.5546 81.2249 24.5546 81.2249 24.5546ZM81.7767 23.0533C81.8993 23.445 82.3284 23.445 82.3897 23.445C82.451 23.445 82.8801 23.445 83.0027 23.0533L83.6157 23.3144C83.4318 23.7713 83.0027 24.0977 82.3897 24.0977C81.7767 24.0977 81.3475 23.7713 81.1636 23.3144L81.7767 23.0533Z" fill="#7F7F7F"/>
<path d="M89.0102 25.3378H90.3588V28.4709H88.5198C88.6424 28.3403 88.765 28.1445 88.8876 27.8834C88.9489 27.6876 89.0715 27.296 89.0715 26.578V25.3378H89.0102ZM88.152 24.5546V26.6433C88.152 27.296 88.0906 27.6223 87.968 27.8834C87.8454 28.2098 87.6002 28.5361 87.2324 28.5361V30.429H88.0293V29.3847H90.8492V30.429H91.6462V28.5361H91.1557V24.6198H88.152V24.5546Z" fill="#7F7F7F"/>
<path d="M94.8338 28.6015C93.9143 28.6015 93.3012 27.9488 93.3012 26.9697C93.3012 25.9906 93.9143 25.3379 94.8338 25.3379C95.7533 25.3379 96.3663 25.9906 96.3663 26.9697C96.3663 27.8835 95.7533 28.6015 94.8338 28.6015ZM94.8338 24.4894C93.4238 24.4894 92.3817 25.5337 92.3817 26.9697C92.3817 28.4057 93.3625 29.45 94.8338 29.45C96.2437 29.45 97.2859 28.4057 97.2859 26.9697C97.2859 25.5337 96.305 24.4894 94.8338 24.4894Z" fill="#7F7F7F"/>
<path d="M98.2054 29.3195L99.0636 24.4894H99.6766L100.903 27.5571L102.19 24.4894H102.803L103.6 29.3195H102.68L102.251 26.3823L101.025 29.3847H100.78L99.554 26.3823L99.0636 29.3195H98.2054Z" fill="#7F7F7F"/>
</svg>
