<svg width="130" height="28" viewBox="0 0 130 28" fill="none" xmlns="http://www.w3.org/2000/svg">
<g style="mix-blend-mode:luminosity">
<path d="M129.704 16.6449V1.42254H128.038L119.025 13.57V1.422H117.208V16.6444H118.874L127.887 4.45913V16.6449H129.704ZM111.489 16.6449H113.307V1.42254H104.066C103.537 8.14979 103.12 15.0303 100.393 15.0303C100.139 15.0321 99.8849 15.0064 99.6357 14.9537V16.6832C99.9799 16.7882 100.337 16.84 100.696 16.837C104.635 16.7987 105.165 10.0715 105.771 3.15211H111.489V16.6449ZM98.6139 15.7993L92.4789 1.46085H90.4716L84.2608 15.9531V16.6832H85.8893L87.4415 12.9931H95.508L97.0607 16.6832H98.6133V15.7993H98.6139ZM94.8266 11.3019H88.1612L91.2287 3.92111L91.456 3.34422C91.5318 3.57519 91.6076 3.72899 91.6833 3.92111L94.8266 11.3019ZM81.1555 16.6449H82.6703V15.9148L77.6718 8.84161L82.2157 2.19153V1.42254H80.7009L76.1565 8.0343H72.748V1.46139H70.9307V16.6832H72.748V9.80273H76.2322L81.1555 16.6455V16.6449ZM0 1.42254V16.6449H6.43805C9.05095 16.6449 12.3457 15.8376 12.3457 12.3779C12.3457 10.1486 10.9446 9.03373 9.46766 8.61119C10.7936 8.14979 11.7401 7.07319 11.7401 5.26645C11.7401 2.65239 9.73285 1.42254 6.5517 1.42254H0ZM9.12671 12.032C9.12671 13.685 7.83921 13.9926 6.40017 13.9926H3.18114V10.0715H6.5517C7.87762 10.1098 9.12671 10.4562 9.12671 12.032ZM8.55847 5.84387C8.55847 7.03541 7.68768 7.57344 6.47594 7.57344H3.25691V4.1143H6.3244C7.68768 4.1143 8.55899 4.65179 8.55899 5.84387H8.55847ZM21.283 16.6455C24.9188 16.6455 27.759 15.4539 27.759 11.5328C27.759 7.61176 24.9188 6.45853 21.283 6.42022H18.8601V1.42308H15.64V16.6455H21.2825H21.283ZM18.8217 9.30301H21.3967C23.063 9.30301 24.4263 9.76387 24.4263 11.5323C24.4263 13.3007 23.0251 13.7621 21.3967 13.7621H18.8217V9.30301ZM32.5686 16.6449V1.42254H29.3495V16.6449H32.5686ZM49.3067 16.6449V1.42254H47.6409L38.6278 13.57V1.422H36.8105V16.6444H38.4768L47.4899 4.45913V16.6449H49.3072H49.3067ZM77.1793 21.2961V27.6003H79.8301C80.8145 27.6003 82.1778 27.2927 82.1778 25.8324C82.1778 24.833 81.4964 24.4099 80.966 24.2567C81.4964 24.1023 81.9505 23.6415 81.9505 22.8725C81.9505 21.7959 81.1176 21.2578 79.8301 21.2578H77.1788V21.2961H77.1793ZM81.1555 25.7553C81.1555 26.6397 80.4357 26.7164 79.7164 26.7164H78.1637V24.7941H79.8301C80.4357 24.7941 81.1555 24.9096 81.1555 25.7553ZM80.8903 23.0646C80.8903 23.6798 80.3978 23.9485 79.8301 23.9485H78.1637V22.2189H79.6786C80.4362 22.1806 80.8903 22.4111 80.8903 23.0646ZM85.7378 27.6003C87.2147 27.6003 88.3885 27.1395 88.3885 25.5248C88.3885 23.9102 87.2147 23.4488 85.7378 23.4488H84.526V21.2961H83.5032V27.6003H85.7378ZM84.526 24.4099H85.7757C86.6464 24.4099 87.3662 24.6409 87.3662 25.5631C87.3662 26.4859 86.6464 26.7164 85.7757 26.7164H84.526V24.4099ZM90.017 27.6003V21.2961H88.9947V27.6003H90.017ZM98.4997 21.2961V23.9874H95.2054V21.2961H94.1831V27.6003H95.2054V24.9096H98.5002V27.6003H99.5226V21.2961H98.5002H98.4997ZM101.681 27.6003L102.249 26.255H105.354L105.923 27.6003H106.982L104.37 21.2961H103.271L100.659 27.6003H101.681ZM103.688 22.6415C103.726 22.5265 103.764 22.4494 103.802 22.2961C103.84 22.4494 103.878 22.5649 103.915 22.6415L105.014 25.3327H102.59L103.688 22.6415ZM115.92 27.6009V21.2956H114.897V26.6392H112.512V21.2956H111.489V26.6392H109.065V21.2956H108.043V27.5998H115.92V27.6009ZM118.836 21.2961C118.646 23.8336 118.533 26.6781 117.435 26.7164C117.245 26.7164 117.132 26.7164 117.018 26.6397V27.6003C117.246 27.6775 117.435 27.7158 117.624 27.7158C119.29 27.7158 119.555 25.0634 119.783 22.2573H121.827V27.6392H122.85V21.3345H118.836V21.2967V21.2961ZM129.856 27.6003V21.2961H128.909L125.577 25.9091V21.2961H124.554V27.6003H125.501L128.834 22.9874V27.6003H129.856Z" fill="#5B5B5B"/>
<path d="M67.1434 3.6518V1.46083C65.7422 0.538029 64.038 0 62.2207 0C57.2216 0 53.1318 4.1132 53.1318 9.22582C53.1318 14.3384 57.1832 18.4516 62.2207 18.4516C64.038 18.4516 65.7043 17.9136 67.1434 16.9908V14.8382H66.6893C65.4235 15.8845 63.8464 16.4543 62.2207 16.4528C58.2818 16.4528 55.1386 13.2235 55.1386 9.26468C55.1386 5.26642 58.3197 2.07603 62.2207 2.07603C63.9244 2.07603 65.5149 2.69122 66.7272 3.72897H67.1434V3.6518ZM53.9653 16.7221L45.1784 25.9473L46.6932 27.447L55.479 18.2212L53.9653 16.7221Z" fill="#8F8F8F"/>
</g>
</svg>
